<?xml version="1.0" encoding="UTF-8"?>
<svg id="uuid-72ecd426-c5cf-46a6-bd3c-80287e416e2c" data-name="svg2" xmlns="http://www.w3.org/2000/svg" width="210mm" height="104.208mm" viewBox="0 0 595.276 295.393">
  <defs>
    <style>
      .uuid-20271670-b09a-4c36-bff9-dcc89b8277b5 {
        fill: #000;
        stroke-width: 0px;
      }

      .uuid-721ea908-0ef9-41dd-b108-84c1512f2b5a {
        fill: none;
        stroke: #000;
        stroke-miterlimit: 10;
      }
    </style>
  </defs>
  <g id="uuid-3b891f74-0e35-40ae-b338-61f67b101421" data-name="g14">
    <path id="uuid-b2ccbea1-083c-4ebf-b50c-3588bbac86d0" data-name="path16" class="uuid-20271670-b09a-4c36-bff9-dcc89b8277b5" d="M238.716,173.758h2.93v1.206h-.798v.599h-1.335v-.599h-.797v-1.206ZM238.479,176.597h3.405v-.598h.797v-3.276h-5v3.276h.798v.598Z"/>
  </g>
  <g id="uuid-d445a7b6-759e-4b05-8612-d05f0c96033d" data-name="g26">
    <path id="uuid-6f90571a-7fc7-40df-b233-44a362a09bd2" data-name="path28" class="uuid-20271670-b09a-4c36-bff9-dcc89b8277b5" d="M256.331,178.816h-49.582v-13h49.582v13h0ZM215.487,161.117h33.321l5.5,2.693h-45.15l6.329-2.693ZM258.069,164.469c.107-.404-.064-.838-.453-1.029l-8.211-4.018c-.122-.059-.256-.09-.391-.09h-33.709c-.121,0-.238.023-.35.07l-9.449,4.019c-.414.176-.61.628-.497,1.05-.02.076-.047.149-.047.23v15.008c0,.492.4.893.893.893h51.367c.495,0,.893-.4.893-.893v-15.008c0-.081-.027-.156-.048-.232"/>
  </g>
  <g id="uuid-d43c4f0a-4f87-4516-ac64-22f8bf5b1a61" data-name="g30">
    <path id="uuid-a87fa0c1-8361-4e68-b01a-8635c658ab55" data-name="path32" class="uuid-20271670-b09a-4c36-bff9-dcc89b8277b5" d="M218.294,170.801h-2.931v-1.206h.799v-.599h1.334v.599h.799v1.206ZM219.33,168.56h-.799v-.599h-3.404v.599h-.799v3.276h5.001v-3.276Z"/>
  </g>
  <g id="uuid-07a085de-019d-475e-b1cf-2bc0686d6a4a" data-name="g34">
    <path id="uuid-a4722334-242e-484a-9d8f-cecf4b62d693" data-name="path36" class="uuid-20271670-b09a-4c36-bff9-dcc89b8277b5" d="M224.16,170.801h-2.931v-1.206h.799v-.599h1.334v.599h.798v1.206ZM225.195,168.56h-.799v-.599h-3.404v.599h-.799v3.276h5.001v-3.276Z"/>
  </g>
  <g id="uuid-861934f0-1666-4d55-a9f4-8e6ac2596483" data-name="g38">
    <path id="uuid-90fc39a1-7cb6-42ff-b651-66600a0e2b2a" data-name="path40" class="uuid-20271670-b09a-4c36-bff9-dcc89b8277b5" d="M229.997,170.801h-2.931v-1.206h.799v-.599h1.334v.599h.799v1.206ZM231.032,168.56h-.799v-.599h-3.404v.599h-.799v3.276h5.001v-3.276Z"/>
  </g>
  <g id="uuid-599c447b-ae40-4675-a5e5-c7fffd19fbd1" data-name="g42">
    <path id="uuid-bff4348c-2b11-44d1-961f-e664791782b3" data-name="path44" class="uuid-20271670-b09a-4c36-bff9-dcc89b8277b5" d="M235.863,170.801h-2.931v-1.206h.799v-.599h1.334v.599h.799v1.206ZM236.898,168.56h-.799v-.599h-3.404v.599h-.799v3.276h5.001v-3.276Z"/>
  </g>
  <g id="uuid-bee32e31-2635-4b66-8d40-d847fcd39628" data-name="g46">
    <path id="uuid-4551c67f-94f3-419d-9ed2-819605425452" data-name="path48" class="uuid-20271670-b09a-4c36-bff9-dcc89b8277b5" d="M241.646,170.801h-2.93v-1.206h.798v-.599h1.334v.599h.799v1.206ZM242.682,168.56h-.799v-.599h-3.404v.599h-.798v3.276h5.001v-3.276Z"/>
  </g>
  <g id="uuid-3a6a4db9-443a-4bfe-9afd-2431d63ff3d5" data-name="g50">
    <path id="uuid-d0417093-2671-4704-9305-928e9255eee6" data-name="path52" class="uuid-20271670-b09a-4c36-bff9-dcc89b8277b5" d="M253.176,175.546h-2.93v-1.206h.798v-.599h1.334v.599h.798v1.206ZM254.212,173.305h-.799v-.598h-3.404v.598h-.798v3.276h5.001v-3.276Z"/>
  </g>
  <g id="uuid-5932f862-e277-4af9-9efc-fe7d7e8473d3" data-name="g54">
    <path id="uuid-ba35ca1c-798d-44c3-bd20-84f5fbcfb710" data-name="path56" class="uuid-20271670-b09a-4c36-bff9-dcc89b8277b5" d="M232.85,173.758h2.931v1.206h-.798v.599h-1.335v-.599h-.798v-1.206ZM232.613,176.597h3.405v-.598h.798v-3.276h-5.001v3.276h.799v.598Z"/>
  </g>
  <g id="uuid-57c1549b-b10c-491d-bbf0-c5554dca9091" data-name="g58">
    <path id="uuid-10f63960-46e6-442f-b9b1-eea2493c5233" data-name="path60" class="uuid-20271670-b09a-4c36-bff9-dcc89b8277b5" d="M227.013,173.758h2.931v1.206h-.799v.599h-1.334v-.599h-.799v-1.206ZM226.776,176.597h3.404v-.598h.799v-3.276h-5.001v3.276h.799v.598Z"/>
  </g>
  <g id="uuid-da468787-30f2-4ee1-95b2-09658a79ab1e" data-name="g62">
    <path id="uuid-92b2cb2b-63e7-456d-941f-83baf2f26ca3" data-name="path64" class="uuid-20271670-b09a-4c36-bff9-dcc89b8277b5" d="M221.147,173.758h2.931v1.206h-.799v.599h-1.334v-.599h-.799v-1.206ZM220.91,176.597h3.404v-.598h.799v-3.276h-5.001v3.276h.799v.598Z"/>
  </g>
  <g id="uuid-e033f503-e30a-4063-a685-ed9df67f3604" data-name="g66">
    <path id="uuid-05dde026-f032-4927-b251-aeef8efaa1aa" data-name="path68" class="uuid-20271670-b09a-4c36-bff9-dcc89b8277b5" d="M215.364,173.758h2.93v1.206h-.798v.599h-1.334v-.599h-.799v-1.206ZM215.127,176.597h3.404v-.598h.798v-3.276h-5.001v3.276h.799v.598Z"/>
  </g>
  <g id="uuid-8257d41f-e6b8-43ab-8a23-d1a281fb0017" data-name="g14">
    <path id="uuid-f663a109-a575-48e4-8011-d4a300974c04" data-name="path16" class="uuid-20271670-b09a-4c36-bff9-dcc89b8277b5" d="M410.241,76.966h2.93v1.206h-.798v.599h-1.335v-.599h-.797v-1.206ZM410.004,79.806h3.405v-.598h.797v-3.276h-5v3.276h.798v.598Z"/>
  </g>
  <g id="uuid-1dd190f7-09c7-42b2-b292-89384b87a5fb" data-name="g26">
    <path id="uuid-e958efbc-ee1d-4c7f-8569-b388df54d679" data-name="path28" class="uuid-20271670-b09a-4c36-bff9-dcc89b8277b5" d="M427.856,82.024h-49.582v-13h49.582v13h0ZM387.012,64.325h33.321l5.5,2.693h-45.15l6.329-2.693ZM429.594,67.678c.107-.404-.064-.838-.453-1.029l-8.211-4.018c-.122-.059-.256-.09-.391-.09h-33.709c-.121,0-.238.023-.35.07l-9.449,4.019c-.414.176-.61.628-.497,1.05-.02.076-.047.149-.047.23v15.008c0,.492.4.893.893.893h51.367c.495,0,.893-.4.893-.893v-15.008c0-.081-.027-.156-.048-.232"/>
  </g>
  <g id="uuid-2a1a3080-adbb-4440-aad2-581f57fa1884" data-name="g30">
    <path id="uuid-df7b6d5b-6846-407c-ac7d-ad52b6a6647f" data-name="path32" class="uuid-20271670-b09a-4c36-bff9-dcc89b8277b5" d="M389.819,74.01h-2.931v-1.206h.799v-.599h1.334v.599h.799v1.206ZM390.854,71.769h-.799v-.599h-3.404v.599h-.799v3.276h5.001v-3.276Z"/>
  </g>
  <g id="uuid-3aafde52-e6db-4ae5-adc2-649e72f27c52" data-name="g34">
    <path id="uuid-7a4bad83-28dd-4f7c-831f-a008cdbfe0e6" data-name="path36" class="uuid-20271670-b09a-4c36-bff9-dcc89b8277b5" d="M395.685,74.01h-2.931v-1.206h.799v-.599h1.334v.599h.798v1.206ZM396.72,71.769h-.799v-.599h-3.404v.599h-.799v3.276h5.001v-3.276Z"/>
  </g>
  <g id="uuid-02599796-5df0-4db1-9cee-6a2b5dc11d73" data-name="g38">
    <path id="uuid-ff1634ca-9587-41f2-b42b-41a3d4f31908" data-name="path40" class="uuid-20271670-b09a-4c36-bff9-dcc89b8277b5" d="M401.522,74.01h-2.931v-1.206h.799v-.599h1.334v.599h.799v1.206ZM402.557,71.769h-.799v-.599h-3.404v.599h-.799v3.276h5.001v-3.276Z"/>
  </g>
  <g id="uuid-84df465c-e50a-4066-84c4-687e6a039c6f" data-name="g42">
    <path id="uuid-1455615b-fcc2-4736-bfcc-cc646c1d965a" data-name="path44" class="uuid-20271670-b09a-4c36-bff9-dcc89b8277b5" d="M407.388,74.01h-2.931v-1.206h.799v-.599h1.334v.599h.799v1.206ZM408.423,71.769h-.799v-.599h-3.404v.599h-.799v3.276h5.001v-3.276Z"/>
  </g>
  <g id="uuid-08eb5c5d-de51-4e11-8259-7905e63a3cd3" data-name="g46">
    <path id="uuid-3b70ec4b-cb4d-40ed-b80a-6d4625cf835e" data-name="path48" class="uuid-20271670-b09a-4c36-bff9-dcc89b8277b5" d="M413.171,74.01h-2.93v-1.206h.798v-.599h1.334v.599h.799v1.206ZM414.206,71.769h-.799v-.599h-3.404v.599h-.798v3.276h5.001v-3.276Z"/>
  </g>
  <g id="uuid-0bb52f83-3530-4214-b135-83f950cdd167" data-name="g50">
    <path id="uuid-ebf1c307-c460-4d59-b54b-6415431d03f5" data-name="path52" class="uuid-20271670-b09a-4c36-bff9-dcc89b8277b5" d="M424.701,78.754h-2.93v-1.206h.798v-.599h1.334v.599h.798v1.206ZM425.736,76.513h-.799v-.598h-3.404v.598h-.798v3.276h5.001v-3.276Z"/>
  </g>
  <g id="uuid-68a27bca-eeba-494a-8934-3063e8572c61" data-name="g54">
    <path id="uuid-d3b7bd77-ba91-4836-90a0-5189b23975f5" data-name="path56" class="uuid-20271670-b09a-4c36-bff9-dcc89b8277b5" d="M404.375,76.966h2.931v1.206h-.798v.599h-1.335v-.599h-.798v-1.206ZM404.138,79.806h3.405v-.598h.798v-3.276h-5.001v3.276h.799v.598Z"/>
  </g>
  <g id="uuid-a595650a-d378-44c0-ba6c-fc7bade1715f" data-name="g58">
    <path id="uuid-7ff04ee8-3463-4b66-bb43-5ee04963a775" data-name="path60" class="uuid-20271670-b09a-4c36-bff9-dcc89b8277b5" d="M398.538,76.966h2.931v1.206h-.799v.599h-1.334v-.599h-.799v-1.206ZM398.301,79.806h3.404v-.598h.799v-3.276h-5.001v3.276h.799v.598Z"/>
  </g>
  <g id="uuid-186f8d77-1168-4093-8991-424f0bfe593d" data-name="g62">
    <path id="uuid-5cbe715d-f69d-43de-a6f4-2220052b4d2c" data-name="path64" class="uuid-20271670-b09a-4c36-bff9-dcc89b8277b5" d="M392.672,76.966h2.931v1.206h-.799v.599h-1.334v-.599h-.799v-1.206ZM392.435,79.806h3.404v-.598h.799v-3.276h-5.001v3.276h.799v.598Z"/>
  </g>
  <g id="uuid-d7a0f08e-939c-44e4-92c7-192f38f1581b" data-name="g66">
    <path id="uuid-b79eaff5-bc22-4b38-946e-6e718462619e" data-name="path68" class="uuid-20271670-b09a-4c36-bff9-dcc89b8277b5" d="M386.888,76.966h2.93v1.206h-.798v.599h-1.334v-.599h-.799v-1.206ZM386.652,79.806h3.404v-.598h.798v-3.276h-5.001v3.276h.799v.598Z"/>
  </g>
  <g id="uuid-191ad210-1139-4b27-b3a5-781c2b9cc087" data-name="g182">
    <path id="uuid-4d52c092-3f83-412b-a00e-c613191138bf" data-name="path184" class="uuid-20271670-b09a-4c36-bff9-dcc89b8277b5" d="M82.121,243.549c-2.523-.356-4.656-.806-6.345-1.336-.166-.052-.338.04-.389.203-.052.164.038.338.202.389,1.72.54,3.888.998,6.444,1.358.014.002.029.003.043.003.153,0,.285-.112.307-.267.025-.169-.093-.327-.263-.351"/>
  </g>
  <g id="uuid-03b1e9e2-f156-437f-9368-801d2ffcd7ea" data-name="g186">
    <path id="uuid-6aeab7d7-d771-4a71-89f5-358433cf279b" data-name="path188" class="uuid-20271670-b09a-4c36-bff9-dcc89b8277b5" d="M114.78,242.867c.245-.08.377-.343.297-.587-.08-.244-.344-.377-.587-.297-4.256,1.4-11.531,2.236-19.458,2.236-2.575,0-5.103-.089-7.515-.263-.256-.016-.48.174-.499.431-.018.256.174.479.43.498,2.435.176,4.986.265,7.583.265,8.021,0,15.403-.853,19.748-2.283"/>
  </g>
  <g id="uuid-ffef5ab2-c27f-4677-9302-e5093992f14a" data-name="g190">
    <path id="uuid-453bf6c0-eadf-4c27-b4ad-d53a34cf2e79" data-name="path192" class="uuid-20271670-b09a-4c36-bff9-dcc89b8277b5" d="M72.386,254.007v-14.221c0-1.787,8.615-4.279,22.645-4.279s22.646,2.492,22.646,4.279v14.221c0,1.787-8.615,4.279-22.646,4.279-14.03,0-22.645-2.492-22.645-4.279M118.917,254.007v-14.221c0-3.624-12.016-5.52-23.887-5.52s-23.885,1.896-23.885,5.52v14.221c0,3.624,12.016,5.52,23.885,5.52,11.871,0,23.887-1.896,23.887-5.52"/>
  </g>
  <g id="uuid-8f2c8d0f-3b3c-4723-a415-8a75b4725be0" data-name="g194">
    <path id="uuid-25851101-b8f0-4d5c-b353-6000fcf42a8e" data-name="path196" class="uuid-20271670-b09a-4c36-bff9-dcc89b8277b5" d="M105.741,233c.405.041.811.086,1.216.134.019.002.038.003.056.003.232,0,.433-.174.461-.411.03-.255-.152-.486-.407-.517-.41-.049-.822-.094-1.232-.136-.248-.023-.483.16-.51.415-.027.257.159.485.415.511"/>
  </g>
  <g id="uuid-d639e6af-6295-4d9d-9a15-a4fdd95d6587" data-name="g198">
    <path id="uuid-96fa2bcd-9510-4564-9cfd-eae4ea6131d6" data-name="path200" class="uuid-20271670-b09a-4c36-bff9-dcc89b8277b5" d="M91.964,261.258c-.398-.01-.807-.022-1.225-.037-.262-.028-.473.191-.482.448-.009.257.192.473.449.482.422.015.835.028,1.236.038h.012c.252,0,.459-.201.465-.454.006-.257-.198-.47-.455-.477"/>
  </g>
  <g id="uuid-794bcc33-3521-4bb3-8418-6f3a020bdc75" data-name="g202">
    <path id="uuid-ead543e8-1046-44d2-9946-760fcb1135d0" data-name="path204" class="uuid-20271670-b09a-4c36-bff9-dcc89b8277b5" d="M98.102,261.258h-.012c-.423.011-.833.018-1.227.024-.257.004-.461.216-.458.473.004.255.212.458.465.458h.007c.397-.006.809-.014,1.235-.024.257-.007.46-.22.453-.477-.005-.252-.212-.453-.465-.453"/>
  </g>
  <g id="uuid-ef134eed-355d-49fc-b8b2-7d08c2e9d048" data-name="g206">
    <path id="uuid-3eaff4cd-54fb-4121-98db-e4dc962d4475" data-name="path208" class="uuid-20271670-b09a-4c36-bff9-dcc89b8277b5" d="M95.031,261.295c-.385,0-.796-.002-1.227-.006-.265.018-.467.204-.47.46-.003.258.204.468.461.47.435.004.849.006,1.236.006.257,0,.465-.209.465-.466,0-.256-.208-.465-.465-.465"/>
  </g>
  <g id="uuid-1ba7acbb-8edc-431d-9756-30feac0a77e8" data-name="g210">
    <path id="uuid-02b7a511-3598-4063-a609-24dc62e7d645" data-name="path212" class="uuid-20271670-b09a-4c36-bff9-dcc89b8277b5" d="M101.153,261.141c-.415.022-.823.04-1.224.056-.257.01-.456.226-.447.483.01.25.216.447.464.447.007,0,.013,0,.019,0,.403-.015.816-.034,1.235-.056.257-.013.453-.233.44-.489-.013-.257-.239-.459-.488-.44"/>
  </g>
  <g id="uuid-74808105-e039-4cb2-8057-dd661e0945ed" data-name="g214">
    <path id="uuid-f19bf191-b07c-48a3-93f3-ec532a219857" data-name="path216" class="uuid-20271670-b09a-4c36-bff9-dcc89b8277b5" d="M104.209,260.937c-.409.034-.817.065-1.221.093-.256.018-.45.24-.432.496.017.245.221.433.464.433.011,0,.022-.001.033-.002.407-.028.819-.06,1.234-.094.256-.021.447-.246.425-.502-.021-.256-.249-.446-.502-.425"/>
  </g>
  <g id="uuid-b315243b-dabd-4cbd-855b-31f281cf1de5" data-name="g218">
    <path id="uuid-fa6e0ec7-5bb3-46a4-9e22-5d93a8085f4c" data-name="path220" class="uuid-20271670-b09a-4c36-bff9-dcc89b8277b5" d="M85.845,260.935c-.405-.034-.812-.071-1.22-.11-.257-.032-.483.163-.508.417-.024.256.163.483.418.508.412.04.823.078,1.232.112.013.001.027.002.039.002.24,0,.443-.184.464-.427.021-.255-.169-.48-.425-.502"/>
  </g>
  <g id="uuid-ee9f557c-c942-4dac-94fa-3424f8afeb80" data-name="g222">
    <path id="uuid-e274a627-b684-4ffd-9eac-3c91b3cec9d1" data-name="path224" class="uuid-20271670-b09a-4c36-bff9-dcc89b8277b5" d="M76.809,259.54c-.399-.102-.788-.21-1.166-.324-.243-.075-.505.065-.58.311-.075.245.064.506.31.579.391.118.794.23,1.205.335.039.01.077.015.116.015.207,0,.397-.141.45-.351.063-.249-.086-.502-.336-.566"/>
  </g>
  <g id="uuid-f022525d-7032-4b0b-818e-836a4e960fc6" data-name="g226">
    <path id="uuid-908d340e-68ec-41d1-bf8e-d65ab44db887" data-name="path228" class="uuid-20271670-b09a-4c36-bff9-dcc89b8277b5" d="M79.783,260.175c-.403-.072-.803-.147-1.197-.227-.25-.053-.498.111-.549.362-.051.252.111.498.363.549.401.082.809.16,1.221.232.027.005.055.007.081.007.222,0,.417-.159.458-.384.045-.254-.124-.495-.377-.54"/>
  </g>
  <g id="uuid-1fcd44e2-4c58-45ef-b4ed-f032ec19ff9a" data-name="g230">
    <path id="uuid-02edd244-8569-409d-9ed4-d500a4bb1c19" data-name="path232" class="uuid-20271670-b09a-4c36-bff9-dcc89b8277b5" d="M107.253,260.624c-.405.05-.81.097-1.216.139-.255.027-.441.256-.414.511.025.24.227.417.463.417.016,0,.033,0,.049-.003.412-.043.823-.09,1.232-.142.255-.031.436-.264.405-.518-.031-.254-.261-.436-.518-.405"/>
  </g>
  <g id="uuid-b4d6fcab-a868-431d-910f-7465540e50b6" data-name="g234">
    <path id="uuid-47df7fc3-d021-48b8-bd1e-4e8c37be76d0" data-name="path236" class="uuid-20271670-b09a-4c36-bff9-dcc89b8277b5" d="M88.901,261.141c-.403-.021-.812-.045-1.224-.071-.252-.03-.477.179-.493.435-.016.257.179.478.435.493.416.027.828.05,1.234.072.008,0,.016,0,.024,0,.245,0,.451-.193.464-.441.013-.257-.184-.476-.441-.489"/>
  </g>
  <g id="uuid-05067b62-5cde-4617-9fc5-fe13a0bc3ca7" data-name="g238">
    <path id="uuid-9d7a45cd-cf8d-4e93-bf99-567ecc973582" data-name="path240" class="uuid-20271670-b09a-4c36-bff9-dcc89b8277b5" d="M82.803,260.623c-.405-.05-.81-.103-1.212-.161-.255-.044-.49.141-.526.395-.036.255.141.49.395.526.407.058.817.112,1.229.163.019.003.038.004.058.004.231,0,.432-.172.461-.408.031-.256-.151-.487-.405-.519"/>
  </g>
  <g id="uuid-1554742c-9aa9-4aae-a915-d4d6fa8a9d18" data-name="g242">
    <path id="uuid-52fa7093-73ca-4065-bc46-9c6338ff32da" data-name="path244" class="uuid-20271670-b09a-4c36-bff9-dcc89b8277b5" d="M116.122,258.63c-.364.143-.741.278-1.133.407-.245.081-.377.344-.297.588.064.195.246.32.442.32.048,0,.097-.008.145-.023.408-.135.804-.276,1.183-.425.239-.094.356-.364.263-.604-.094-.239-.365-.355-.603-.262"/>
  </g>
  <g id="uuid-5ce5306b-2c3b-4d9a-9faf-5cfd3f96aaa8" data-name="g246">
    <path id="uuid-1652ab68-4069-43f9-a6f3-7809aa31b985" data-name="path248" class="uuid-20271670-b09a-4c36-bff9-dcc89b8277b5" d="M121.151,248.74c-.257,0-.465.208-.465.465v1.228c0,.257.208.465.465.465s.465-.208.465-.465v-1.228c0-.257-.208-.465-.465-.465"/>
  </g>
  <g id="uuid-416d2887-7e21-4f9f-8ec5-db2a6f4aa9dc" data-name="g250">
    <path id="uuid-bd11931f-6eb5-4c3c-81c2-197c75cf0deb" data-name="path252" class="uuid-20271670-b09a-4c36-bff9-dcc89b8277b5" d="M121.151,245.668c-.257,0-.465.208-.465.465v1.229c0,.257.208.465.465.465s.465-.208.465-.465v-1.229c0-.257-.208-.465-.465-.465"/>
  </g>
  <g id="uuid-c2d99d04-691a-458f-92a5-10d8c83c1b91" data-name="g254">
    <path id="uuid-51e6c54e-29a6-4980-8e05-722527857608" data-name="path256" class="uuid-20271670-b09a-4c36-bff9-dcc89b8277b5" d="M121.151,251.813c-.257,0-.465.208-.465.465v1.228c0,.257.208.465.465.465s.465-.208.465-.465v-1.228c0-.257-.208-.465-.465-.465"/>
  </g>
  <g id="uuid-13b9e2d8-07b4-487b-b7ff-8a15b51f40d1" data-name="g258">
    <path id="uuid-955c8a82-959b-4005-91fa-25ed8eb641a2" data-name="path260" class="uuid-20271670-b09a-4c36-bff9-dcc89b8277b5" d="M117.486,235.777c.369.19.71.389,1.014.594.08.054.169.079.259.079.15,0,.298-.072.387-.206.143-.213.086-.502-.127-.646-.333-.224-.705-.442-1.105-.648-.23-.118-.509-.028-.627.2-.118.228-.029.509.2.626"/>
  </g>
  <g id="uuid-5f8db7c7-81b1-4bc9-ab6d-00d5392bf277" data-name="g262">
    <path id="uuid-54100c3b-af28-46bf-aed3-9fd1f8abb3b6" data-name="path264" class="uuid-20271670-b09a-4c36-bff9-dcc89b8277b5" d="M121.151,239.523c-.257,0-.465.209-.465.465v1.229c0,.257.208.465.465.465s.465-.208.465-.465v-1.229c0-.256-.208-.465-.465-.465"/>
  </g>
  <g id="uuid-038f900d-4aad-40bd-b5d9-bbcd0a39b8e9" data-name="g266">
    <path id="uuid-d9e20fcf-2adb-4a64-8ff0-f1186eb347d7" data-name="path268" class="uuid-20271670-b09a-4c36-bff9-dcc89b8277b5" d="M118.733,257.26c-.295.213-.629.423-.992.621-.225.123-.308.406-.185.632.085.155.245.242.409.242.075,0,.152-.018.223-.057.396-.217.762-.447,1.09-.682.207-.151.255-.442.105-.65-.149-.208-.44-.256-.65-.105"/>
  </g>
  <g id="uuid-749143bb-3faf-4d57-98fd-c237f65c5c45" data-name="g270">
    <path id="uuid-f1ba3e7d-1d9d-443a-b5d0-4804650832f8" data-name="path272" class="uuid-20271670-b09a-4c36-bff9-dcc89b8277b5" d="M121.082,254.875c-.24-.089-.509.034-.597.276-.119.324-.295.641-.524.944-.155.205-.114.496.091.651.084.064.182.094.28.094.142,0,.281-.064.372-.185.283-.375.503-.773.655-1.183.088-.241-.035-.508-.276-.597"/>
  </g>
  <g id="uuid-4b6ed975-24fd-46cf-b922-86f93aa6049b" data-name="g274">
    <path id="uuid-2ddcf9f7-d300-4fa3-b8d7-e406b2e3c1e1" data-name="path276" class="uuid-20271670-b09a-4c36-bff9-dcc89b8277b5" d="M73.935,258.628c-.387-.153-.755-.315-1.094-.479-.232-.111-.509-.016-.622.215-.112.231-.016.509.215.622.36.175.751.345,1.159.507.057.022.115.032.171.032.185,0,.361-.111.433-.294.094-.239-.022-.509-.261-.604"/>
  </g>
  <g id="uuid-7c8c541f-e4a0-4799-ba06-e1cc0823fe98" data-name="g278">
    <path id="uuid-85e1a869-b823-46a1-9b22-936c7335f1b7" data-name="path280" class="uuid-20271670-b09a-4c36-bff9-dcc89b8277b5" d="M113.247,259.542c-.387.099-.782.191-1.182.281-.251.056-.409.303-.354.555.048.217.241.365.453.365.033,0,.067-.004.101-.012.411-.091.816-.186,1.212-.287.249-.064.399-.317.335-.566-.064-.249-.317-.398-.565-.336"/>
  </g>
  <g id="uuid-90650da0-4238-42eb-ba23-ae3cf2e53873" data-name="g282">
    <path id="uuid-77970779-2bcf-475b-aa20-3c3b543f05db" data-name="path284" class="uuid-20271670-b09a-4c36-bff9-dcc89b8277b5" d="M110.272,260.177c-.398.07-.799.136-1.203.198-.254.038-.428.276-.389.529.035.231.233.395.459.395.024,0,.047-.002.071-.005.412-.064.821-.13,1.225-.202.252-.045.422-.286.377-.539-.045-.253-.28-.422-.539-.377"/>
  </g>
  <g id="uuid-34dead1a-a5ce-4e2b-aba6-c90e798dd235" data-name="g286">
    <path id="uuid-75b892a8-9001-4014-bb37-c1370f5fc223" data-name="path288" class="uuid-20271670-b09a-4c36-bff9-dcc89b8277b5" d="M120.807,238.672c.065,0,.132-.013.194-.043.233-.107.336-.383.229-.617-.18-.392-.427-.772-.732-1.129-.168-.196-.461-.218-.657-.052-.195.167-.218.461-.051.657.249.292.45.599.594.913.08.171.248.272.424.272"/>
  </g>
  <g id="uuid-b0e5ef7e-62de-488c-93d1-7a6f8d06e1aa" data-name="g290">
    <path id="uuid-de5101a1-7e0c-46ac-b0f6-cf0610c924f2" data-name="path292" class="uuid-20271670-b09a-4c36-bff9-dcc89b8277b5" d="M121.151,242.595c-.257,0-.465.209-.465.466v1.228c0,.257.208.466.465.466s.465-.208.465-.466v-1.228c0-.257-.208-.466-.465-.466"/>
  </g>
  <g id="uuid-82b9fe8c-08e8-47f3-a257-7728ce7b635f" data-name="g294">
    <path id="uuid-65147d43-c75f-4842-b5c2-f486c8f5f59f" data-name="path296" class="uuid-20271670-b09a-4c36-bff9-dcc89b8277b5" d="M81.223,233.379c.023,0,.046-.002.069-.005.4-.058.804-.115,1.208-.167.255-.033.435-.266.402-.521-.032-.255-.264-.437-.52-.402-.411.053-.819.109-1.226.169-.255.037-.43.274-.392.528.033.232.233.397.459.397"/>
  </g>
  <g id="uuid-4ef54c27-ce66-4c47-906f-b6b0bb85b96c" data-name="g298">
    <path id="uuid-1350b6b4-e49d-4464-9feb-16b95f92c136" data-name="path300" class="uuid-20271670-b09a-4c36-bff9-dcc89b8277b5" d="M96.565,232.508c.392.005.802.012,1.226.022h.012c.251,0,.459-.201.465-.454.006-.257-.197-.47-.455-.477-.427-.01-.84-.016-1.236-.021-.287-.009-.468.203-.471.459-.003.257.203.468.46.471"/>
  </g>
  <g id="uuid-9a38d80e-f094-440f-a794-e896534d02ad" data-name="g302">
    <path id="uuid-e3ba2ef0-9766-4262-9079-3464ed11de6f" data-name="path304" class="uuid-20271670-b09a-4c36-bff9-dcc89b8277b5" d="M93.492,232.508h.006c.43-.006.84-.008,1.227-.01.257,0,.465-.208.464-.466,0-.257-.208-.464-.465-.464h-.001c-.39,0-.804.003-1.236.009-.258.003-.463.214-.46.471.004.255.212.459.466.459"/>
  </g>
  <g id="uuid-a4ddbaf5-ef1c-4639-b2a5-b4d51e0e77e9" data-name="g306">
    <path id="uuid-bbbc6d7e-9bb4-462d-80c0-7f4a5ace60fd" data-name="path308" class="uuid-20271670-b09a-4c36-bff9-dcc89b8277b5" d="M84.275,233.002c.015,0,.032-.002.048-.003.407-.041.814-.079,1.218-.116.256-.022.446-.247.423-.503-.022-.256-.254-.45-.504-.423-.409.036-.821.074-1.233.117-.256.026-.442.254-.416.51.025.24.228.418.463.418"/>
  </g>
  <g id="uuid-67fe0f21-d452-4c09-9aa6-0731aab1044b" data-name="g310">
    <path id="uuid-4fe66eac-118b-45fd-92c6-26fd03405293" data-name="path312" class="uuid-20271670-b09a-4c36-bff9-dcc89b8277b5" d="M87.342,232.745c.011,0,.021-.001.032-.001.412-.028.82-.053,1.223-.074.256-.014.453-.234.439-.49-.014-.257-.225-.449-.49-.44-.406.022-.818.047-1.235.075-.256.018-.45.24-.433.496.017.246.221.434.464.434"/>
  </g>
  <g id="uuid-4c10ab29-d84d-4324-8cd1-9dbbf0806a23" data-name="g314">
    <path id="uuid-aaf229cb-9002-4b48-a5e9-b64c0122f73c" data-name="path316" class="uuid-20271670-b09a-4c36-bff9-dcc89b8277b5" d="M90.415,232.585h.018c.418-.016.827-.03,1.225-.04.257-.007.459-.221.452-.478-.006-.257-.233-.478-.477-.452-.402.011-.814.024-1.236.04-.257.01-.457.226-.447.483.011.251.216.448.465.448"/>
  </g>
  <g id="uuid-2f9fc02d-9b9c-45e8-b51a-9fe755bae26a" data-name="g318">
    <path id="uuid-708088b6-9561-4508-a792-89342fe35755" data-name="path320" class="uuid-20271670-b09a-4c36-bff9-dcc89b8277b5" d="M111.775,233.909c.402.085.797.176,1.185.271.038.009.075.014.112.014.209,0,.399-.142.451-.354.062-.25-.091-.502-.341-.563-.398-.098-.802-.19-1.215-.278-.249-.051-.499.107-.552.359-.054.251.107.498.359.552"/>
  </g>
  <g id="uuid-f325830f-3847-4e24-b7ac-00e228ee583d" data-name="g322">
    <path id="uuid-24e96b77-7a34-4596-af47-344b28b58186" data-name="path324" class="uuid-20271670-b09a-4c36-bff9-dcc89b8277b5" d="M114.709,234.667c.392.124.773.254,1.14.391.054.021.109.03.163.03.189,0,.366-.116.435-.302.09-.241-.031-.509-.272-.598-.382-.144-.778-.28-1.188-.408-.245-.08-.506.059-.583.304-.078.245.058.505.304.582"/>
  </g>
  <g id="uuid-86a6a7f9-f862-415f-a348-5f15a9e44899" data-name="g326">
    <path id="uuid-10f97821-3a90-4756-95b3-049df54d9514" data-name="path328" class="uuid-20271670-b09a-4c36-bff9-dcc89b8277b5" d="M99.63,232.585c.4.014.81.033,1.225.053.007.001.015.001.023.001.246,0,.451-.194.464-.442.012-.257-.186-.476-.442-.488-.418-.02-.831-.039-1.234-.054-.258-.014-.474.19-.482.448-.01.257.19.472.447.483"/>
  </g>
  <g id="uuid-4f05173e-fe80-4ca8-b969-1c5a72b5be7d" data-name="g330">
    <path id="uuid-a22db8c4-f325-4c14-b8a8-e8ae5ca46651" data-name="path332" class="uuid-20271670-b09a-4c36-bff9-dcc89b8277b5" d="M108.774,233.376c.405.059.807.123,1.205.191.027.004.053.007.079.007.222,0,.42-.16.458-.387.043-.254-.126-.494-.38-.538-.405-.069-.814-.134-1.226-.195-.256-.038-.491.138-.528.392-.038.254.138.491.392.528"/>
  </g>
  <g id="uuid-367b7c2b-debf-4823-8503-237f4b27eaff" data-name="g334">
    <path id="uuid-10a5eec6-c1b3-4248-b1b7-ab1363a9be23" data-name="path336" class="uuid-20271670-b09a-4c36-bff9-dcc89b8277b5" d="M102.691,232.744c.403.027.812.057,1.222.09.013.002.025.002.038.002.24,0,.443-.185.464-.429.02-.256-.171-.48-.427-.501-.414-.033-.825-.063-1.233-.091-.238-.011-.478.177-.495.433-.019.257.176.479.432.496"/>
  </g>
  <g id="uuid-2231ff62-deb6-4efa-ba68-8f5e1eeb728b" data-name="g338">
    <path id="uuid-28a0fae1-bba4-4e61-b8be-a943440cc93c" data-name="path340" class="uuid-20271670-b09a-4c36-bff9-dcc89b8277b5" d="M68.912,246.592c.257,0,.465-.208.465-.465v-1.229c0-.257-.208-.465-.465-.465s-.465.208-.465.465v1.229c0,.257.208.465.465.465"/>
  </g>
  <g id="uuid-8f81a8dc-b49f-447e-8031-f889b4e38186" data-name="g342">
    <path id="uuid-001795ed-01ce-4d8e-92b4-764f2cfcef65" data-name="path344" class="uuid-20271670-b09a-4c36-bff9-dcc89b8277b5" d="M68.912,249.665c.257,0,.465-.208.465-.465v-1.229c0-.257-.208-.465-.465-.465s-.465.208-.465.465v1.229c0,.257.208.465.465.465"/>
  </g>
  <g id="uuid-bec44bbd-9374-4544-b3a0-24de023eff08" data-name="g346">
    <path id="uuid-52741635-a6e6-44f6-89b5-dd351bfd9c80" data-name="path348" class="uuid-20271670-b09a-4c36-bff9-dcc89b8277b5" d="M70.46,256.513c-.178-.186-.472-.191-.658-.013-.186.177-.192.472-.014.658.284.296.618.583.991.853.083.06.178.089.273.089.144,0,.286-.067.377-.193.151-.208.103-.499-.104-.65-.328-.238-.619-.487-.865-.744"/>
  </g>
  <g id="uuid-5a99218b-a5d7-460f-b58a-5bdfa09f10ec" data-name="g350">
    <path id="uuid-6102801d-9b83-4253-add4-c6ecb0933035" data-name="path352" class="uuid-20271670-b09a-4c36-bff9-dcc89b8277b5" d="M68.912,252.738c.257,0,.465-.209.465-.466v-1.228c0-.257-.208-.466-.465-.466s-.465.208-.465.466v1.228c0,.257.208.466.465.466"/>
  </g>
  <g id="uuid-29c03536-db61-4c15-9e09-db70ab55a70c" data-name="g354">
    <path id="uuid-a1b0b2b0-e9c6-41ba-bf4c-3e56f4d0be45" data-name="path356" class="uuid-20271670-b09a-4c36-bff9-dcc89b8277b5" d="M69.378,254.104c-.007-.257-.229-.464-.478-.452-.257.007-.46.221-.452.478.012.46.097.91.254,1.337.069.189.247.306.437.306.053,0,.108-.01.16-.029.241-.088.365-.356.277-.597-.121-.333-.188-.683-.198-1.043"/>
  </g>
  <g id="uuid-cc11a530-5852-4f90-b979-c51439a677c6" data-name="g358">
    <path id="uuid-b564d35b-f73a-43c5-8bc5-ccb90e8e41c9" data-name="path360" class="uuid-20271670-b09a-4c36-bff9-dcc89b8277b5" d="M70.273,237.487c.229-.267.505-.528.823-.777.202-.158.238-.45.08-.653-.159-.202-.45-.238-.653-.08-.365.286-.687.591-.956.904-.167.195-.144.489.051.657.088.075.195.112.302.112.132,0,.263-.056.354-.163"/>
  </g>
  <g id="uuid-e204c3e4-d121-432a-8efc-b78e8c8d52a6" data-name="g362">
    <path id="uuid-5b57dbb2-68f7-492a-93c8-a5540df56faf" data-name="path364" class="uuid-20271670-b09a-4c36-bff9-dcc89b8277b5" d="M72.366,235.828c.072,0,.144-.016.213-.051.333-.171.697-.339,1.082-.499.238-.099.35-.371.251-.608-.099-.237-.372-.351-.608-.251-.409.17-.796.348-1.151.531-.229.118-.318.398-.201.626.082.161.245.252.414.252"/>
  </g>
  <g id="uuid-7d322b24-6562-40d9-a41b-36562b734cf9" data-name="g366">
    <path id="uuid-b5fe73f2-2cc9-4dc3-8109-63e341673f46" data-name="path368" class="uuid-20271670-b09a-4c36-bff9-dcc89b8277b5" d="M78.194,233.918c.032,0,.065-.003.098-.01.392-.084.791-.162,1.194-.236.254-.046.421-.288.374-.541-.047-.254-.291-.422-.542-.374-.412.075-.819.155-1.22.24-.251.053-.412.3-.359.552.046.219.239.369.455.369"/>
  </g>
  <g id="uuid-db4e70ad-b977-4b56-9b85-febad1a5d643" data-name="g370">
    <path id="uuid-eab50323-673a-4b14-97a5-5d2615a49562" data-name="path372" class="uuid-20271670-b09a-4c36-bff9-dcc89b8277b5" d="M75.217,234.688c.046,0,.093-.007.139-.021.377-.119.765-.231,1.163-.336.248-.066.396-.321.329-.569-.066-.249-.321-.396-.57-.329-.41.11-.812.225-1.201.347-.245.077-.381.338-.304.583.063.198.246.326.444.326"/>
  </g>
  <g id="uuid-0ccedc86-8d63-4ad3-8945-7e3aeee13238" data-name="g374">
    <path id="uuid-10529966-906d-40cf-a0a4-f55adb4fb45f" data-name="path376" class="uuid-20271670-b09a-4c36-bff9-dcc89b8277b5" d="M68.912,243.52c.257,0,.465-.208.465-.465v-1.228c0-.257-.208-.465-.465-.465s-.465.208-.465.465v1.228c0,.257.208.465.465.465"/>
  </g>
  <g id="uuid-d13222d3-ccb3-47ef-b8da-a63bfa215bcb" data-name="g378">
    <path id="uuid-9d0dad06-4d1c-4283-9218-2063ec2b9072" data-name="path380" class="uuid-20271670-b09a-4c36-bff9-dcc89b8277b5" d="M68.912,240.448c.257,0,.465-.209.465-.466v-.196c0-.304.04-.603.118-.885.068-.248-.077-.504-.324-.573-.248-.068-.504.076-.573.324-.101.363-.152.745-.152,1.133v.196c0,.258.208.466.465.466"/>
  </g>
  <path id="uuid-6d73de25-ba2d-4eab-a71f-f0a8a036ad3c" data-name="path382" class="uuid-20271670-b09a-4c36-bff9-dcc89b8277b5" d="M69.091,179.299h51.881v-13.925h-51.881v13.925ZM121.624,180.602h-53.184c-.36,0-.651-.292-.651-.651v-15.227c0-.36.291-.651.651-.651h53.184c.36,0,.651.292.651.651v15.228c0,.359-.291.651-.651.651"/>
  <g id="uuid-44a3f015-464c-4da1-8a4d-0f6c89a3d0d8" data-name="g384">
    <path id="uuid-77e6ced9-12b4-45af-a9a3-1c73e3b9236d" data-name="path386" class="uuid-20271670-b09a-4c36-bff9-dcc89b8277b5" d="M68.44,165.375c-.237,0-.468-.131-.582-.358-.163-.322-.033-.713.288-.875l9.018-4.539c.092-.046.191-.069.293-.069h35.148c.102,0,.203.024.293.069l9.018,4.539c.322.162.45.553.288.875-.161.321-.553.451-.874.288l-8.881-4.469h-34.837l-8.881,4.469c-.094.047-.193.07-.292.07"/>
  </g>
  <g id="uuid-4156a663-21f3-46af-8ce3-00dccfae30ba" data-name="g388">
    <path id="uuid-c13cdf84-18a9-42af-950e-a12ce9f8f02e" data-name="path390" class="uuid-20271670-b09a-4c36-bff9-dcc89b8277b5" d="M121.624,174.596h-6.411c-1.245,0-2.258-1.013-2.258-2.258s1.013-2.259,2.258-2.259h6.411c.179,0,.325.146.325.325s-.147.326-.325.326h-6.411c-.885,0-1.607.72-1.607,1.607s.721,1.606,1.607,1.606h6.411c.179,0,.325.146.325.326s-.147.325-.325.325"/>
  </g>
  <g id="uuid-8fb296ed-e2cd-4207-82fd-cda3e9bf2571" data-name="g392">
    <path id="uuid-01bceda9-f28c-4cab-b817-e0357ed7ffc9" data-name="path394" class="uuid-20271670-b09a-4c36-bff9-dcc89b8277b5" d="M72.293,173.233c-.242,0-.47-.098-.638-.267-.163-.163-.261-.396-.261-.632,0-.234.098-.462.261-.632.332-.332.937-.332,1.269,0,.163.17.26.397.26.632,0,.241-.098.469-.26.632-.163.169-.397.267-.631.267"/>
  </g>
  <g id="uuid-a8b49da4-498f-4896-ac40-625093e1a937" data-name="g396">
    <path id="uuid-294d8f53-a71b-4119-844e-1ff47b9a3f2f" data-name="path398" class="uuid-20271670-b09a-4c36-bff9-dcc89b8277b5" d="M75.145,172.334c0-.496.404-.892.9-.892.488,0,.891.396.891.892s-.403.899-.891.899c-.495,0-.9-.404-.9-.899M78.896,172.334c0-.496.398-.892.893-.892s.898.396.898.892-.403.899-.898.899-.893-.404-.893-.899M82.647,172.334c0-.496.397-.892.893-.892s.898.396.898.892-.403.899-.898.899-.893-.404-.893-.899M86.392,172.334c0-.496.404-.892.9-.892s.891.396.891.892-.396.899-.891.899-.9-.404-.9-.899M90.145,172.334c0-.496.403-.892.898-.892s.893.396.893.892-.398.899-.893.899-.898-.404-.898-.899M93.897,172.334c0-.496.396-.892.891-.892s.899.396.899.892-.404.899-.899.899-.891-.404-.891-.899M97.647,172.334c0-.496.397-.892.892-.892s.9.396.9.892-.405.899-.9.899-.892-.404-.892-.899M101.392,172.334c0-.496.403-.892.898-.892s.893.396.893.892-.398.899-.893.899-.898-.404-.898-.899M105.144,172.334c0-.496.403-.892.898-.892s.893.396.893.892-.396.899-.893.899-.898-.404-.898-.899"/>
  </g>
  <g id="uuid-e1143702-6d27-4015-a805-4a73ba3c641e" data-name="g400">
    <path id="uuid-1ac86371-d961-4ef3-ba08-887468874e9b" data-name="path402" class="uuid-20271670-b09a-4c36-bff9-dcc89b8277b5" d="M109.787,173.233c-.234,0-.462-.098-.631-.267-.163-.163-.261-.391-.261-.632,0-.234.098-.462.261-.632.338-.332.937-.332,1.269,0,.163.17.26.397.26.632,0,.241-.097.469-.26.638-.169.163-.396.261-.638.261"/>
  </g>
  <g id="uuid-70d1a15b-4f1d-48a9-ae9f-fe08f87fa9ac" data-name="g404">
    <path id="uuid-5a437aa6-625c-4ac8-8be1-f9303a6dc126" data-name="path406" class="uuid-20271670-b09a-4c36-bff9-dcc89b8277b5" d="M72.293,169.599c-.242,0-.47-.098-.638-.267-.163-.163-.261-.396-.261-.632s.098-.469.261-.632c.338-.332.937-.332,1.269,0,.163.164.26.398.26.632s-.098.469-.26.632c-.169.169-.397.267-.631.267"/>
  </g>
  <g id="uuid-abd36a07-de73-4d91-87cc-57fd722f96f5" data-name="g408">
    <path id="uuid-bd2efd16-7266-405f-8a0b-df287e00fe4e" data-name="path410" class="uuid-20271670-b09a-4c36-bff9-dcc89b8277b5" d="M75.145,168.7c0-.495.404-.893.9-.893.488,0,.891.397.891.893s-.403.899-.891.899c-.495,0-.9-.403-.9-.899M78.896,168.7c0-.495.398-.893.893-.893s.898.397.898.893-.403.899-.898.899-.893-.403-.893-.899M82.647,168.7c0-.495.397-.893.893-.893s.898.397.898.893-.403.899-.898.899-.893-.403-.893-.899M86.392,168.7c0-.495.404-.893.9-.893s.891.397.891.893-.396.899-.891.899-.9-.403-.9-.899M90.145,168.7c0-.495.403-.893.898-.893s.893.397.893.893-.398.899-.893.899-.898-.403-.898-.899M93.897,168.7c0-.495.396-.893.891-.893s.899.397.899.893-.404.899-.899.899-.891-.403-.891-.899M97.647,168.7c0-.495.397-.893.892-.893s.9.397.9.893-.405.899-.9.899-.892-.403-.892-.899M101.392,168.7c0-.495.403-.893.898-.893s.893.397.893.893-.398.899-.893.899-.898-.403-.898-.899M105.144,168.7c0-.495.403-.893.898-.893s.893.397.893.893-.396.899-.893.899-.898-.403-.898-.899"/>
  </g>
  <g id="uuid-394abb96-9988-4229-bf62-ecce08acf33b" data-name="g412">
    <path id="uuid-f45b7a14-a11c-4d13-8929-3bac8e0a9097" data-name="path414" class="uuid-20271670-b09a-4c36-bff9-dcc89b8277b5" d="M109.787,169.599c-.228,0-.462-.098-.631-.267-.163-.163-.261-.396-.261-.632s.098-.462.261-.632c.338-.338.937-.332,1.269,0,.163.164.26.398.26.632s-.097.469-.26.632c-.169.169-.396.267-.638.267"/>
  </g>
  <g id="uuid-6a5525f2-916c-491b-a3e7-b2ee59a61de4" data-name="g416">
    <path id="uuid-66f28f46-796c-44ca-b4f5-139af2dc3c6f" data-name="path418" class="uuid-20271670-b09a-4c36-bff9-dcc89b8277b5" d="M72.293,176.868c-.242,0-.47-.098-.638-.26-.163-.17-.261-.397-.261-.632,0-.241.098-.469.261-.637.338-.332.937-.332,1.269,0,.163.169.26.397.26.637,0,.234-.098.462-.26.632-.169.162-.397.26-.631.26"/>
  </g>
  <g id="uuid-2253e6a5-7422-4123-b6de-cc7ca5bf7142" data-name="g420">
    <path id="uuid-154ee484-0862-47b4-998c-21e42a3609dc" data-name="path422" class="uuid-20271670-b09a-4c36-bff9-dcc89b8277b5" d="M75.145,175.975c0-.495.404-.898.9-.898.488,0,.891.404.891.898s-.403.893-.891.893c-.495,0-.9-.397-.9-.893M78.896,175.975c0-.495.398-.898.893-.898s.898.404.898.898-.403.893-.898.893-.893-.397-.893-.893M82.647,175.975c0-.495.397-.898.893-.898s.898.404.898.898-.403.893-.898.893-.893-.397-.893-.893M86.392,175.975c0-.495.404-.898.9-.898s.891.404.891.898-.396.893-.891.893-.9-.397-.9-.893M90.145,175.975c0-.495.403-.898.898-.898s.893.404.893.898-.398.893-.893.893-.898-.397-.898-.893M93.897,175.975c0-.495.396-.898.891-.898s.899.404.899.898-.404.893-.899.893-.891-.397-.891-.893M97.647,175.975c0-.495.397-.898.892-.898s.9.404.9.898-.405.893-.9.893-.892-.397-.892-.893M101.392,175.975c0-.495.403-.898.898-.898s.893.404.893.898-.398.893-.893.893-.898-.397-.898-.893M105.144,175.975c0-.495.403-.898.898-.898s.893.404.893.898-.396.893-.893.893-.898-.397-.898-.893"/>
  </g>
  <g id="uuid-6ec57d3e-0409-43b9-a23c-4f96682dc977" data-name="g424">
    <path id="uuid-437db930-f9a6-4b29-995b-7ad9e0b8193a" data-name="path426" class="uuid-20271670-b09a-4c36-bff9-dcc89b8277b5" d="M109.787,176.868c-.228,0-.462-.098-.631-.26-.163-.17-.261-.397-.261-.632,0-.241.098-.469.261-.637.338-.332.937-.332,1.269.006.163.163.26.391.26.632,0,.234-.097.462-.26.632-.169.162-.396.26-.638.26"/>
  </g>
  <path id="uuid-52d8ce8d-ede8-471a-9801-fd98f5c9c32a" data-name="path430" class="uuid-20271670-b09a-4c36-bff9-dcc89b8277b5" d="M133.599,77.997H56.593c1.433-4.325,5.441-7.261,10.142-7.261h.008l.128.005c.422.039.766-.28.84-.684,1.011-5.581,5.863-9.631,11.538-9.631,1.519,0,2.996.301,4.4.872.868.422,2.725,1.496,3.872,3.422.137.227.396.338.646.294.073-.014.144-.038.21-.079.296-.176.393-.559.217-.856-.987-1.655-2.389-2.746-3.457-3.393,2.163-8.015,9.439-13.599,17.766-13.599,8.001,0,15.059,5.116,17.477,12.685-2.148-.014-3.746.763-3.841.802-.316.132-.47.496-.338.816.132.318.497.47.815.339.024-.011,2.224-.886,4.727-.472,6.972,1.506,11.988,7.668,11.988,14.846.001.609-.042,1.234-.13,1.896M122.091,59.611c-2.565-8.381-10.382-14.19-19.19-14.19s-16.584,5.757-19.172,14.112c-1.439-.513-2.943-.773-4.481-.773-6.246,0-11.619,4.296-13.035,10.315-5.581.204-10.283,4.081-11.526,9.569-.055.246.004.506.163.705.159.197.397.313.65.313h78.814c.406,0,.752-.292.822-.692.175-1.019.261-1.958.261-2.869-.001-7.967-5.566-14.82-13.305-16.49"/>
  <g>
    <line class="uuid-721ea908-0ef9-41dd-b108-84c1512f2b5a" x1="95.031" y1="103.355" x2="95.031" y2="151.257"/>
    <polygon class="uuid-20271670-b09a-4c36-bff9-dcc89b8277b5" points="91.292 150.163 95.031 156.639 98.771 150.163 91.292 150.163"/>
  </g>
  <g>
    <line class="uuid-721ea908-0ef9-41dd-b108-84c1512f2b5a" x1="232.85" y1="102.419" x2="232.85" y2="156.639"/>
    <polygon class="uuid-20271670-b09a-4c36-bff9-dcc89b8277b5" points="229.11 103.513 232.849 97.037 236.589 103.513 229.11 103.513"/>
  </g>
  <g>
    <polyline class="uuid-721ea908-0ef9-41dd-b108-84c1512f2b5a" points="404.35 85.696 404.35 105.196 339.733 105.196 339.733 124.452"/>
    <polygon class="uuid-20271670-b09a-4c36-bff9-dcc89b8277b5" points="335.994 123.358 339.733 129.834 343.472 123.358 335.994 123.358"/>
  </g>
  <polyline class="uuid-721ea908-0ef9-41dd-b108-84c1512f2b5a" points="404.35 85.697 404.35 105.196 467.097 105.196 467.097 191.099"/>
  <g>
    <line class="uuid-721ea908-0ef9-41dd-b108-84c1512f2b5a" x1="197.604" y1="171.442" x2="126.094" y2="171.442"/>
    <polygon class="uuid-20271670-b09a-4c36-bff9-dcc89b8277b5" points="196.51 167.703 202.986 171.442 196.51 175.182 196.51 167.703"/>
  </g>
  <g>
    <line class="uuid-721ea908-0ef9-41dd-b108-84c1512f2b5a" x1="368.357" y1="74.01" x2="265.51" y2="74.01"/>
    <polygon class="uuid-20271670-b09a-4c36-bff9-dcc89b8277b5" points="367.263 70.27 373.739 74.009 367.263 77.749 367.263 70.27"/>
    <polygon class="uuid-20271670-b09a-4c36-bff9-dcc89b8277b5" points="266.604 70.27 260.128 74.009 266.604 77.749 266.604 70.27"/>
  </g>
  <g>
    <path class="uuid-20271670-b09a-4c36-bff9-dcc89b8277b5" d="M72.197,82.424h1.199v6.996h-1.199v-6.996Z"/>
    <path class="uuid-20271670-b09a-4c36-bff9-dcc89b8277b5" d="M74.886,84.413h1.129v.82c.38-.59.929-.9,1.579-.9,1.029,0,1.749.73,1.749,1.789v3.298h-1.14v-2.979c0-.729-.43-1.199-1.099-1.199-.46,0-.83.21-1.089.61v3.568h-1.129v-5.007Z"/>
    <path class="uuid-20271670-b09a-4c36-bff9-dcc89b8277b5" d="M81.176,88.121v-2.809h-1v-.899h1v-1.379l1.129-.24v1.619h1.389v.899h-1.389v2.559c0,.49.19.68.7.68.22,0,.379-.03.68-.12v.949c-.29.09-.67.14-.97.14-1.009,0-1.539-.48-1.539-1.399Z"/>
    <path class="uuid-20271670-b09a-4c36-bff9-dcc89b8277b5" d="M84.386,86.922c0-1.469,1.06-2.589,2.438-2.589,1.37,0,2.369,1.089,2.369,2.589v.27h-3.698c.11.81.72,1.399,1.499,1.399.47,0,.91-.18,1.189-.47l.74.669c-.61.51-1.219.73-1.979.73-1.439,0-2.559-1.129-2.559-2.599ZM88.124,86.492c-.12-.73-.64-1.239-1.309-1.239-.68,0-1.179.49-1.309,1.239h2.618Z"/>
    <path class="uuid-20271670-b09a-4c36-bff9-dcc89b8277b5" d="M90.346,84.413h1.129v1.08c.28-.76.759-1.169,1.379-1.169.19.01.32.03.49.1v.989c-.18-.07-.41-.12-.62-.12-.549,0-1,.31-1.249.83v3.298h-1.129v-5.007Z"/>
    <path class="uuid-20271670-b09a-4c36-bff9-dcc89b8277b5" d="M94.276,84.413h1.129v.82c.38-.59.929-.9,1.579-.9,1.029,0,1.749.73,1.749,1.789v3.298h-1.14v-2.979c0-.729-.43-1.199-1.099-1.199-.46,0-.83.21-1.089.61v3.568h-1.129v-5.007Z"/>
    <path class="uuid-20271670-b09a-4c36-bff9-dcc89b8277b5" d="M99.866,86.922c0-1.469,1.06-2.589,2.438-2.589,1.37,0,2.369,1.089,2.369,2.589v.27h-3.698c.11.81.72,1.399,1.499,1.399.47,0,.91-.18,1.189-.47l.74.669c-.61.51-1.219.73-1.979.73-1.439,0-2.559-1.129-2.559-2.599ZM103.604,86.492c-.12-.73-.64-1.239-1.309-1.239-.68,0-1.179.49-1.309,1.239h2.618Z"/>
    <path class="uuid-20271670-b09a-4c36-bff9-dcc89b8277b5" d="M106.296,88.121v-2.809h-1v-.899h1v-1.379l1.129-.24v1.619h1.389v.899h-1.389v2.559c0,.49.19.68.7.68.22,0,.379-.03.68-.12v.949c-.29.09-.67.14-.97.14-1.009,0-1.539-.48-1.539-1.399Z"/>
    <path class="uuid-20271670-b09a-4c36-bff9-dcc89b8277b5" d="M111.656,87.541c0-.85.37-1.379,1.429-1.959-.44-.57-.6-1.009-.6-1.549,0-.989.79-1.719,1.859-1.719,1.019,0,1.779.66,1.779,1.579,0,.62-.34,1.129-1.04,1.549l-.51.31c.45.479.99,1.009,1.54,1.519.28-.479.479-1.049.6-1.689l1,.16c-.19.869-.46,1.599-.85,2.179.37.32.75.62,1.089.869l-.689.81c-.34-.26-.7-.549-1.06-.849-.58.509-1.31.779-2.139.779-1.439,0-2.409-.799-2.409-1.989ZM115.474,88.101c-.66-.6-1.299-1.229-1.829-1.829-.689.39-.93.7-.93,1.2,0,.699.56,1.139,1.429,1.139.51,0,.959-.16,1.33-.51ZM114.485,84.813c.4-.25.6-.53.6-.89,0-.43-.35-.75-.77-.75-.459,0-.799.35-.799.839,0,.34.13.62.5,1.07l.47-.27Z"/>
    <path class="uuid-20271670-b09a-4c36-bff9-dcc89b8277b5" d="M57.702,94.424h5.027v1.02h-3.828v1.999h2.638v1h-2.638v2.979h-1.2v-6.996Z"/>
    <path class="uuid-20271670-b09a-4c36-bff9-dcc89b8277b5" d="M63.012,99.981c0-.899.739-1.469,1.919-1.469.47,0,.909.1,1.349.32v-.56c0-.66-.38-1-1.149-1-.42,0-.879.12-1.459.39l-.4-.82c.75-.34,1.409-.51,2.079-.51,1.31,0,2.049.66,2.049,1.819v3.268h-1.119v-.52c-.43.419-.91.609-1.489.609-1.049,0-1.779-.629-1.779-1.529ZM65.101,100.711c.45,0,.839-.13,1.179-.42v-.81c-.36-.17-.72-.24-1.149-.24-.649,0-1.06.27-1.06.72,0,.459.4.75,1.03.75Z"/>
    <path class="uuid-20271670-b09a-4c36-bff9-dcc89b8277b5" d="M68.542,98.922c0-1.449,1.1-2.589,2.529-2.589.779,0,1.499.31,1.999.85l-.699.729c-.35-.39-.78-.589-1.259-.589-.81,0-1.439.7-1.439,1.599,0,.909.63,1.599,1.439,1.599.479,0,.909-.2,1.259-.58l.699.719c-.5.54-1.219.85-1.999.85-1.429,0-2.529-1.129-2.529-2.588Z"/>
    <path class="uuid-20271670-b09a-4c36-bff9-dcc89b8277b5" d="M73.862,94.704c0-.38.31-.7.7-.7.38,0,.7.32.7.7s-.32.689-.7.689c-.39,0-.7-.31-.7-.689ZM73.992,96.413h1.129v5.007h-1.129v-5.007Z"/>
    <path class="uuid-20271670-b09a-4c36-bff9-dcc89b8277b5" d="M76.522,94.254l1.129-.2v7.366h-1.129v-7.166Z"/>
    <path class="uuid-20271670-b09a-4c36-bff9-dcc89b8277b5" d="M78.902,94.704c0-.38.31-.7.7-.7.38,0,.7.32.7.7s-.32.689-.7.689c-.39,0-.7-.31-.7-.689ZM79.032,96.413h1.129v5.007h-1.129v-5.007Z"/>
    <path class="uuid-20271670-b09a-4c36-bff9-dcc89b8277b5" d="M82.182,100.121v-2.809h-1v-.899h1v-1.379l1.129-.24v1.619h1.389v.899h-1.389v2.559c0,.49.19.68.7.68.22,0,.379-.03.68-.12v.949c-.29.09-.67.14-.97.14-1.009,0-1.539-.48-1.539-1.399Z"/>
    <path class="uuid-20271670-b09a-4c36-bff9-dcc89b8277b5" d="M85.602,103.539v-.979c.13.03.29.04.44.04.4,0,.64-.18.81-.569l.23-.56-1.889-5.057h1.25l1.279,3.708,1.389-3.708h1.239l-2.398,5.877c-.39.969-.85,1.319-1.789,1.319-.16,0-.36-.02-.56-.07Z"/>
    <path class="uuid-20271670-b09a-4c36-bff9-dcc89b8277b5" d="M93.561,94.424h1.169l3.648,5.087-.02-5.087h1.129v6.996h-1.069l-3.748-5.227.02,5.227h-1.129v-6.996Z"/>
    <path class="uuid-20271670-b09a-4c36-bff9-dcc89b8277b5" d="M100.801,98.922c0-1.469,1.06-2.589,2.438-2.589,1.37,0,2.369,1.089,2.369,2.589v.27h-3.698c.11.81.72,1.399,1.499,1.399.47,0,.91-.18,1.189-.47l.74.669c-.61.51-1.219.73-1.979.73-1.439,0-2.559-1.129-2.559-2.599ZM104.539,98.492c-.12-.73-.64-1.239-1.309-1.239-.68,0-1.179.49-1.309,1.239h2.618Z"/>
    <path class="uuid-20271670-b09a-4c36-bff9-dcc89b8277b5" d="M107.231,100.121v-2.809h-1v-.899h1v-1.379l1.129-.24v1.619h1.389v.899h-1.389v2.559c0,.49.19.68.7.68.22,0,.379-.03.68-.12v.949c-.29.09-.67.14-.97.14-1.009,0-1.539-.48-1.539-1.399Z"/>
    <path class="uuid-20271670-b09a-4c36-bff9-dcc89b8277b5" d="M110.382,96.413h1.079l.88,3.528,1.039-3.528h.95l1.029,3.528.879-3.528h1.05l-1.35,5.007h-1.079l-1.02-3.528-1.009,3.528h-1.1l-1.349-5.007Z"/>
    <path class="uuid-20271670-b09a-4c36-bff9-dcc89b8277b5" d="M117.881,98.922c0-1.479,1.08-2.589,2.519-2.589,1.429,0,2.509,1.109,2.509,2.589s-1.08,2.588-2.509,2.588c-1.439,0-2.519-1.109-2.519-2.588ZM121.799,98.922c0-.93-.59-1.629-1.399-1.629-.819,0-1.409.7-1.409,1.629,0,.939.59,1.629,1.409,1.629.81,0,1.399-.689,1.399-1.629Z"/>
    <path class="uuid-20271670-b09a-4c36-bff9-dcc89b8277b5" d="M124.081,96.413h1.129v1.08c.28-.76.759-1.169,1.379-1.169.19.01.32.03.49.1v.989c-.18-.07-.41-.12-.62-.12-.549,0-.999.31-1.249.83v3.298h-1.129v-5.007Z"/>
    <path class="uuid-20271670-b09a-4c36-bff9-dcc89b8277b5" d="M128.011,94.234l1.129-.19v4.498l2.079-2.129h1.299l-2.309,2.319,2.429,2.688h-1.439l-2.059-2.309v2.309h-1.129v-7.186Z"/>
  </g>
  <g>
    <path class="uuid-20271670-b09a-4c36-bff9-dcc89b8277b5" d="M71.887,190.558c0-1.449,1.1-2.589,2.529-2.589.779,0,1.499.31,1.999.85l-.699.729c-.35-.39-.78-.589-1.259-.589-.81,0-1.439.7-1.439,1.599,0,.909.63,1.599,1.439,1.599.479,0,.909-.2,1.259-.58l.699.719c-.5.54-1.219.85-1.999.85-1.429,0-2.529-1.129-2.529-2.588Z"/>
    <path class="uuid-20271670-b09a-4c36-bff9-dcc89b8277b5" d="M77.347,185.891l1.129-.2v7.366h-1.129v-7.166Z"/>
    <path class="uuid-20271670-b09a-4c36-bff9-dcc89b8277b5" d="M79.607,191.617c0-.899.739-1.469,1.919-1.469.47,0,.909.1,1.349.32v-.56c0-.66-.38-1-1.149-1-.42,0-.879.12-1.459.39l-.4-.82c.75-.34,1.409-.51,2.079-.51,1.31,0,2.049.66,2.049,1.819v3.268h-1.119v-.52c-.43.419-.91.609-1.489.609-1.049,0-1.779-.629-1.779-1.529ZM81.696,192.347c.45,0,.839-.13,1.179-.42v-.81c-.36-.17-.72-.24-1.149-.24-.649,0-1.06.27-1.06.72,0,.459.4.75,1.03.75Z"/>
    <path class="uuid-20271670-b09a-4c36-bff9-dcc89b8277b5" d="M84.917,192.477l.53-.75c.659.41,1.099.569,1.609.569.6,0,1.009-.28,1.009-.68,0-.31-.209-.47-.699-.569l-.88-.15c-.979-.18-1.449-.63-1.449-1.379,0-.939.77-1.549,1.939-1.549.7,0,1.33.2,1.969.6l-.53.75c-.51-.33-1-.48-1.509-.48-.52,0-.859.22-.859.58,0,.32.18.46.699.55l.89.17c1,.18,1.479.64,1.479,1.389,0,.919-.88,1.629-2.049,1.629-.86,0-1.619-.24-2.149-.68Z"/>
    <path class="uuid-20271670-b09a-4c36-bff9-dcc89b8277b5" d="M89.707,192.477l.53-.75c.66.41,1.099.569,1.609.569.6,0,1.009-.28,1.009-.68,0-.31-.209-.47-.699-.569l-.88-.15c-.979-.18-1.449-.63-1.449-1.379,0-.939.77-1.549,1.939-1.549.7,0,1.33.2,1.969.6l-.53.75c-.51-.33-1-.48-1.509-.48-.52,0-.859.22-.859.58,0,.32.18.46.7.55l.889.17c1,.18,1.479.64,1.479,1.389,0,.919-.88,1.629-2.049,1.629-.859,0-1.619-.24-2.148-.68Z"/>
    <path class="uuid-20271670-b09a-4c36-bff9-dcc89b8277b5" d="M94.947,188.05h1.129v1.08c.28-.76.759-1.169,1.379-1.169.19.01.32.03.49.1v.989c-.18-.07-.41-.12-.62-.12-.549,0-.999.31-1.249.83v3.298h-1.129v-5.007Z"/>
    <path class="uuid-20271670-b09a-4c36-bff9-dcc89b8277b5" d="M98.417,190.558c0-1.479,1.08-2.589,2.519-2.589,1.429,0,2.509,1.109,2.509,2.589s-1.08,2.588-2.509,2.588c-1.439,0-2.519-1.109-2.519-2.588ZM102.335,190.558c0-.93-.59-1.629-1.399-1.629-.819,0-1.409.7-1.409,1.629,0,.939.59,1.629,1.409,1.629.81,0,1.399-.689,1.399-1.629Z"/>
    <path class="uuid-20271670-b09a-4c36-bff9-dcc89b8277b5" d="M104.386,190.558c0-1.479,1.08-2.589,2.519-2.589,1.429,0,2.509,1.109,2.509,2.589s-1.08,2.588-2.509,2.588c-1.439,0-2.519-1.109-2.519-2.588ZM108.304,190.558c0-.93-.59-1.629-1.399-1.629-.819,0-1.409.7-1.409,1.629,0,.939.59,1.629,1.409,1.629.81,0,1.399-.689,1.399-1.629Z"/>
    <path class="uuid-20271670-b09a-4c36-bff9-dcc89b8277b5" d="M110.586,188.05h1.129v.79c.37-.57.87-.87,1.479-.87.69,0,1.219.37,1.479.959.39-.629.949-.959,1.659-.959.97,0,1.639.75,1.639,1.809v3.278h-1.129v-3.028c0-.7-.39-1.149-1.009-1.149-.41,0-.75.19-1,.6.01.1.02.2.02.3v3.278h-1.139v-3.028c0-.7-.39-1.149-1.01-1.149-.41,0-.739.19-.989.58v3.598h-1.129v-5.007Z"/>
  </g>
  <g>
    <path class="uuid-20271670-b09a-4c36-bff9-dcc89b8277b5" d="M77.342,214.289c0-1.449,1.1-2.589,2.529-2.589.779,0,1.499.31,1.999.85l-.699.729c-.35-.39-.78-.589-1.259-.589-.81,0-1.439.7-1.439,1.599,0,.909.63,1.599,1.439,1.599.479,0,.909-.2,1.259-.58l.699.719c-.5.54-1.219.85-1.999.85-1.429,0-2.529-1.129-2.529-2.588Z"/>
    <path class="uuid-20271670-b09a-4c36-bff9-dcc89b8277b5" d="M82.422,214.289c0-1.479,1.08-2.589,2.519-2.589,1.429,0,2.509,1.109,2.509,2.589s-1.08,2.588-2.509,2.588c-1.439,0-2.519-1.109-2.519-2.588ZM86.34,214.289c0-.93-.59-1.629-1.399-1.629-.819,0-1.409.7-1.409,1.629,0,.939.59,1.629,1.409,1.629.81,0,1.399-.689,1.399-1.629Z"/>
    <path class="uuid-20271670-b09a-4c36-bff9-dcc89b8277b5" d="M88.622,211.78h1.129v.82c.38-.59.929-.9,1.579-.9,1.029,0,1.749.73,1.749,1.789v3.298h-1.14v-2.979c0-.729-.43-1.199-1.099-1.199-.46,0-.83.21-1.089.61v3.568h-1.129v-5.007Z"/>
    <path class="uuid-20271670-b09a-4c36-bff9-dcc89b8277b5" d="M94.911,215.488v-2.809h-1v-.899h1v-1.379l1.129-.24v1.619h1.389v.899h-1.389v2.559c0,.49.19.68.7.68.22,0,.379-.03.68-.12v.949c-.29.09-.67.14-.97.14-1.009,0-1.539-.48-1.539-1.399Z"/>
    <path class="uuid-20271670-b09a-4c36-bff9-dcc89b8277b5" d="M98.122,214.289c0-1.469,1.06-2.589,2.438-2.589,1.37,0,2.369,1.089,2.369,2.589v.27h-3.698c.11.81.72,1.399,1.499,1.399.47,0,.91-.18,1.189-.47l.74.669c-.61.51-1.219.73-1.979.73-1.439,0-2.559-1.129-2.559-2.599ZM101.86,213.859c-.12-.73-.64-1.239-1.309-1.239-.68,0-1.179.49-1.309,1.239h2.618Z"/>
    <path class="uuid-20271670-b09a-4c36-bff9-dcc89b8277b5" d="M104.082,211.78h1.129v.82c.38-.59.929-.9,1.579-.9,1.029,0,1.749.73,1.749,1.789v3.298h-1.14v-2.979c0-.729-.43-1.199-1.099-1.199-.46,0-.83.21-1.089.61v3.568h-1.129v-5.007Z"/>
    <path class="uuid-20271670-b09a-4c36-bff9-dcc89b8277b5" d="M110.371,215.488v-2.809h-1v-.899h1v-1.379l1.129-.24v1.619h1.389v.899h-1.389v2.559c0,.49.19.68.7.68.22,0,.379-.03.68-.12v.949c-.29.09-.67.14-.97.14-1.009,0-1.539-.48-1.539-1.399Z"/>
    <path class="uuid-20271670-b09a-4c36-bff9-dcc89b8277b5" d="M74.152,220.87h1.129v.79c.37-.57.87-.87,1.479-.87.689,0,1.219.37,1.479.959.39-.629.949-.959,1.659-.959.97,0,1.639.75,1.639,1.809v3.278h-1.129v-3.028c0-.7-.39-1.149-1.009-1.149-.41,0-.75.19-1,.6.01.1.02.2.02.3v3.278h-1.139v-3.028c0-.7-.39-1.149-1.01-1.149-.41,0-.74.19-.989.58v3.598h-1.129v-5.007Z"/>
    <path class="uuid-20271670-b09a-4c36-bff9-dcc89b8277b5" d="M82.652,224.439c0-.9.739-1.469,1.919-1.469.47,0,.909.1,1.349.32v-.56c0-.66-.38-1-1.149-1-.42,0-.879.12-1.459.39l-.4-.82c.75-.34,1.409-.51,2.079-.51,1.31,0,2.049.66,2.049,1.819v3.268h-1.119v-.52c-.43.419-.91.609-1.489.609-1.049,0-1.779-.629-1.779-1.529ZM84.741,225.168c.45,0,.839-.13,1.179-.42v-.81c-.36-.17-.72-.24-1.149-.24-.649,0-1.06.27-1.06.72,0,.459.4.75,1.03.75Z"/>
    <path class="uuid-20271670-b09a-4c36-bff9-dcc89b8277b5" d="M88.882,224.578v-2.809h-1v-.899h1v-1.379l1.129-.24v1.619h1.389v.899h-1.389v2.559c0,.49.19.68.7.68.22,0,.379-.03.68-.12v.949c-.29.09-.67.14-.97.14-1.009,0-1.539-.48-1.539-1.399Z"/>
    <path class="uuid-20271670-b09a-4c36-bff9-dcc89b8277b5" d="M92.092,223.379c0-1.469,1.06-2.589,2.438-2.589,1.37,0,2.369,1.09,2.369,2.589v.27h-3.698c.11.81.72,1.399,1.499,1.399.47,0,.91-.18,1.189-.47l.74.669c-.61.51-1.219.73-1.979.73-1.439,0-2.559-1.129-2.559-2.599ZM95.83,222.949c-.12-.73-.64-1.239-1.309-1.239-.68,0-1.179.489-1.309,1.239h2.618Z"/>
    <path class="uuid-20271670-b09a-4c36-bff9-dcc89b8277b5" d="M98.052,220.87h1.129v1.08c.28-.76.759-1.169,1.379-1.169.19.01.32.03.49.1v.989c-.18-.07-.41-.12-.62-.12-.549,0-.999.31-1.249.83v3.298h-1.129v-5.007Z"/>
    <path class="uuid-20271670-b09a-4c36-bff9-dcc89b8277b5" d="M101.842,219.161c0-.38.31-.7.7-.7.38,0,.7.32.7.7s-.32.689-.7.689c-.39,0-.7-.31-.7-.689ZM101.971,220.87h1.129v5.007h-1.129v-5.007Z"/>
    <path class="uuid-20271670-b09a-4c36-bff9-dcc89b8277b5" d="M104.242,224.439c0-.9.739-1.469,1.919-1.469.47,0,.909.1,1.349.32v-.56c0-.66-.38-1-1.149-1-.42,0-.879.12-1.459.39l-.4-.82c.75-.34,1.409-.51,2.079-.51,1.31,0,2.049.66,2.049,1.819v3.268h-1.119v-.52c-.43.419-.91.609-1.489.609-1.049,0-1.779-.629-1.779-1.529ZM106.331,225.168c.45,0,.839-.13,1.179-.42v-.81c-.36-.17-.72-.24-1.149-.24-.649,0-1.06.27-1.06.72,0,.459.4.75,1.03.75Z"/>
    <path class="uuid-20271670-b09a-4c36-bff9-dcc89b8277b5" d="M110.002,218.712l1.129-.2v7.366h-1.129v-7.166Z"/>
    <path class="uuid-20271670-b09a-4c36-bff9-dcc89b8277b5" d="M112.072,225.298l.53-.75c.66.41,1.099.569,1.609.569.6,0,1.009-.28,1.009-.679,0-.31-.209-.47-.699-.57l-.88-.15c-.979-.18-1.449-.63-1.449-1.379,0-.939.77-1.549,1.939-1.549.7,0,1.33.2,1.969.6l-.53.75c-.51-.33-1-.48-1.509-.48-.52,0-.859.22-.859.58,0,.32.18.46.7.55l.889.17c1,.18,1.479.64,1.479,1.389,0,.919-.88,1.629-2.049,1.629-.859,0-1.619-.24-2.148-.68Z"/>
  </g>
  <path id="uuid-f4c27b6d-1572-4b1e-b991-35e2d181bc82" data-name="path4714-0-3-6" class="uuid-20271670-b09a-4c36-bff9-dcc89b8277b5" d="M392.23,135.579c0,.092-.092.184-.092.275v15.425c0,.551.367.918.918.918h52.794c.551,0,.918-.367.918-.918v-15.425c0-.092,0-.184-.092-.275.092-.459-.092-.826-.459-1.102l-8.447-4.132c-.092-.092-.275-.092-.367-.092h-34.615c-.092,0-.275,0-.367.092l-9.733,4.132c-.459.184-.643.643-.459,1.102ZM402.973,132.09h34.248l5.693,2.754h-46.459l6.519-2.754ZM393.975,136.957h50.958v13.405h-50.958v-13.405Z"/>
  <circle id="uuid-4dc3fb30-12a7-43cf-9608-c0ec7ab8d9bd" data-name="circle4716-4-7" class="uuid-20271670-b09a-4c36-bff9-dcc89b8277b5" cx="398.657" cy="143.567" r="1.285"/>
  <circle id="uuid-561ed519-15ca-4ffa-a152-7706b5bc941d" data-name="circle4718-3-6" class="uuid-20271670-b09a-4c36-bff9-dcc89b8277b5" cx="403.065" cy="143.567" r="1.285"/>
  <path id="uuid-0dc0d30e-4c17-4276-ad86-cc7028bdb4ac" data-name="path4720-6-3-4" class="uuid-20271670-b09a-4c36-bff9-dcc89b8277b5" d="M441.995,139.344h-2.754c-.275,0-.459.184-.459.459v7.345c0,.275.184.459.459.459h2.754c.275,0,.459-.184.459-.459v-7.345c0-.184-.275-.459-.459-.459ZM441.536,146.689h-1.836v-6.427h1.836v6.427Z"/>
  <path id="uuid-06999cf0-e93b-4d8a-beaf-078f3609baa0" data-name="path4722-3-8-4" class="uuid-20271670-b09a-4c36-bff9-dcc89b8277b5" d="M436.486,139.344h-2.754c-.275,0-.459.184-.459.459v7.345c0,.275.184.459.459.459h2.754c.275,0,.459-.184.459-.459v-7.345c0-.184-.275-.459-.459-.459ZM436.027,146.689h-1.836v-6.427h1.836v6.427Z"/>
  <g>
    <path class="uuid-20271670-b09a-4c36-bff9-dcc89b8277b5" d="M402.239,162.629l.529-.75c.66.41,1.1.569,1.609.569.6,0,1.01-.28,1.01-.68,0-.31-.21-.47-.7-.569l-.879-.15c-.979-.18-1.449-.63-1.449-1.379,0-.939.77-1.549,1.938-1.549.7,0,1.329.2,1.969.6l-.529.75c-.51-.33-1-.48-1.509-.48-.521,0-.86.22-.86.58,0,.32.181.46.7.55l.89.17c.999.18,1.479.64,1.479,1.389,0,.919-.879,1.629-2.049,1.629-.859,0-1.619-.24-2.148-.68Z"/>
    <path class="uuid-20271670-b09a-4c36-bff9-dcc89b8277b5" d="M407.299,160.71c0-1.469,1.06-2.589,2.438-2.589,1.369,0,2.369,1.089,2.369,2.589v.27h-3.698c.11.81.72,1.399,1.499,1.399.47,0,.91-.18,1.189-.47l.739.669c-.609.51-1.219.73-1.979.73-1.439,0-2.559-1.129-2.559-2.599ZM411.037,160.28c-.12-.73-.64-1.239-1.31-1.239-.68,0-1.18.49-1.31,1.239h2.619Z"/>
    <path class="uuid-20271670-b09a-4c36-bff9-dcc89b8277b5" d="M413.258,158.201h1.13v1.08c.279-.76.76-1.169,1.379-1.169.19.01.32.03.49.1v.989c-.181-.07-.41-.12-.62-.12-.55,0-.999.31-1.249.83v3.298h-1.13v-5.007Z"/>
    <path class="uuid-20271670-b09a-4c36-bff9-dcc89b8277b5" d="M416.749,158.201h1.229l1.399,3.638,1.39-3.638h1.179l-2.059,5.007h-1.1l-2.038-5.007Z"/>
    <path class="uuid-20271670-b09a-4c36-bff9-dcc89b8277b5" d="M422.379,160.71c0-1.469,1.06-2.589,2.438-2.589,1.369,0,2.369,1.089,2.369,2.589v.27h-3.698c.11.81.72,1.399,1.499,1.399.47,0,.91-.18,1.189-.47l.739.669c-.609.51-1.219.73-1.979.73-1.439,0-2.559-1.129-2.559-2.599ZM426.117,160.28c-.12-.73-.64-1.239-1.31-1.239-.68,0-1.18.49-1.31,1.239h2.619Z"/>
    <path class="uuid-20271670-b09a-4c36-bff9-dcc89b8277b5" d="M428.338,158.201h1.13v1.08c.279-.76.76-1.169,1.379-1.169.19.01.32.03.49.1v.989c-.181-.07-.41-.12-.62-.12-.55,0-.999.31-1.249.83v3.298h-1.13v-5.007Z"/>
    <path class="uuid-20271670-b09a-4c36-bff9-dcc89b8277b5" d="M431.858,161.769c0-.899.74-1.469,1.919-1.469.47,0,.91.1,1.35.32v-.56c0-.66-.38-1-1.149-1-.42,0-.88.12-1.459.39l-.4-.82c.75-.34,1.409-.51,2.079-.51,1.31,0,2.049.66,2.049,1.819v3.268h-1.119v-.52c-.43.419-.909.609-1.489.609-1.05,0-1.779-.629-1.779-1.529ZM433.947,162.499c.45,0,.84-.13,1.18-.42v-.81c-.359-.17-.72-.24-1.149-.24-.649,0-1.06.27-1.06.72,0,.459.4.75,1.029.75Z"/>
  </g>
  <path id="uuid-bac607d5-7c79-4dfd-9677-82eead3644a2" data-name="path4714-0-3-6" class="uuid-20271670-b09a-4c36-bff9-dcc89b8277b5" d="M312.509,135.579c0,.092-.092.184-.092.275v15.425c0,.551.367.918.918.918h52.794c.551,0,.918-.367.918-.918v-15.425c0-.092,0-.184-.092-.275.092-.459-.092-.826-.459-1.102l-8.447-4.132c-.092-.092-.275-.092-.367-.092h-34.615c-.092,0-.275,0-.367.092l-9.733,4.132c-.459.184-.643.643-.459,1.102ZM323.252,132.09h34.248l5.693,2.754h-46.459l6.519-2.754ZM314.254,136.957h50.958v13.405h-50.958v-13.405Z"/>
  <circle id="uuid-b76dfcef-4d00-4ccb-87ec-60ac2a7645bc" data-name="circle4716-4-7" class="uuid-20271670-b09a-4c36-bff9-dcc89b8277b5" cx="318.937" cy="143.567" r="1.285"/>
  <circle id="uuid-6a0da79e-7b8d-40e1-9e0a-e2728af1184d" data-name="circle4718-3-6" class="uuid-20271670-b09a-4c36-bff9-dcc89b8277b5" cx="323.344" cy="143.567" r="1.285"/>
  <path id="uuid-65496714-9266-4607-be38-1de0ef54501e" data-name="path4720-6-3-4" class="uuid-20271670-b09a-4c36-bff9-dcc89b8277b5" d="M362.274,139.344h-2.754c-.275,0-.459.184-.459.459v7.345c0,.275.184.459.459.459h2.754c.275,0,.459-.184.459-.459v-7.345c0-.184-.275-.459-.459-.459ZM361.815,146.689h-1.836v-6.427h1.836v6.427Z"/>
  <path id="uuid-41dde00e-b36c-4334-bba7-12867292418e" data-name="path4722-3-8-4" class="uuid-20271670-b09a-4c36-bff9-dcc89b8277b5" d="M356.765,139.344h-2.754c-.275,0-.459.184-.459.459v7.345c0,.275.184.459.459.459h2.754c.275,0,.459-.184.459-.459v-7.345c0-.184-.275-.459-.459-.459ZM356.306,146.689h-1.836v-6.427h1.836v6.427Z"/>
  <g>
    <path class="uuid-20271670-b09a-4c36-bff9-dcc89b8277b5" d="M326.827,161.499v-3.298h1.14v2.968c0,.74.43,1.209,1.1,1.209.45,0,.829-.2,1.09-.6v-3.578h1.129v5.007h-1.129v-.81c-.38.59-.92.89-1.59.89-1.02,0-1.739-.74-1.739-1.789Z"/>
    <path class="uuid-20271670-b09a-4c36-bff9-dcc89b8277b5" d="M333.307,161.909v-2.809h-.999v-.899h.999v-1.379l1.129-.24v1.619h1.39v.899h-1.39v2.559c0,.49.19.68.7.68.22,0,.38-.03.68-.12v.949c-.29.09-.67.14-.97.14-1.01,0-1.539-.48-1.539-1.399Z"/>
    <path class="uuid-20271670-b09a-4c36-bff9-dcc89b8277b5" d="M336.687,156.492c0-.38.31-.7.7-.7.379,0,.699.32.699.7s-.32.689-.699.689c-.391,0-.7-.31-.7-.689ZM336.817,158.201h1.13v5.007h-1.13v-5.007Z"/>
    <path class="uuid-20271670-b09a-4c36-bff9-dcc89b8277b5" d="M339.346,156.042l1.13-.2v7.366h-1.13v-7.166Z"/>
    <path class="uuid-20271670-b09a-4c36-bff9-dcc89b8277b5" d="M341.727,156.492c0-.38.31-.7.7-.7.379,0,.699.32.699.7s-.32.689-.699.689c-.391,0-.7-.31-.7-.689ZM341.857,158.201h1.13v5.007h-1.13v-5.007Z"/>
    <path class="uuid-20271670-b09a-4c36-bff9-dcc89b8277b5" d="M345.007,161.909v-2.809h-.999v-.899h.999v-1.379l1.129-.24v1.619h1.39v.899h-1.39v2.559c0,.49.19.68.7.68.22,0,.38-.03.68-.12v.949c-.29.09-.67.14-.97.14-1.01,0-1.539-.48-1.539-1.399Z"/>
    <path class="uuid-20271670-b09a-4c36-bff9-dcc89b8277b5" d="M348.427,165.327v-.979c.13.03.29.04.439.04.399,0,.64-.18.81-.569l.229-.56-1.889-5.057h1.249l1.279,3.708,1.39-3.708h1.239l-2.398,5.877c-.39.969-.85,1.319-1.789,1.319-.16,0-.36-.02-.56-.07Z"/>
  </g>
  <path id="uuid-21aae81d-3762-46ee-8556-b2b621210b8f" data-name="path4714-0-3-6" class="uuid-20271670-b09a-4c36-bff9-dcc89b8277b5" d="M204.673,66.7c0,.092-.092.184-.092.275v15.425c0,.551.367.918.918.918h52.794c.551,0,.918-.367.918-.918v-15.425c0-.092,0-.184-.092-.275.092-.459-.092-.826-.459-1.102l-8.447-4.132c-.092-.092-.275-.092-.367-.092h-34.615c-.092,0-.275,0-.367.092l-9.733,4.132c-.459.184-.643.643-.459,1.102ZM215.416,63.211h34.248l5.693,2.754h-46.459l6.519-2.754ZM206.418,68.077h50.958v13.405h-50.958v-13.405Z"/>
  <circle id="uuid-276e659e-c50d-4f37-a9ab-e8f212b1dd6f" data-name="circle4716-4-7" class="uuid-20271670-b09a-4c36-bff9-dcc89b8277b5" cx="211.1" cy="74.688" r="1.285"/>
  <circle id="uuid-21319693-4614-4489-8cfc-9cf1c21a2c12" data-name="circle4718-3-6" class="uuid-20271670-b09a-4c36-bff9-dcc89b8277b5" cx="215.508" cy="74.688" r="1.285"/>
  <path id="uuid-4f2e5494-acf0-4fa1-9ffa-f43a8c9d5456" data-name="path4720-6-3-4" class="uuid-20271670-b09a-4c36-bff9-dcc89b8277b5" d="M254.438,70.464h-2.754c-.275,0-.459.184-.459.459v7.345c0,.275.184.459.459.459h2.754c.275,0,.459-.184.459-.459v-7.345c0-.184-.275-.459-.459-.459ZM253.979,77.81h-1.836v-6.427h1.836v6.427Z"/>
  <path id="uuid-d9bf481d-66f0-46ec-a165-ffc46f01681d" data-name="path4722-3-8-4" class="uuid-20271670-b09a-4c36-bff9-dcc89b8277b5" d="M248.929,70.464h-2.754c-.275,0-.459.184-.459.459v7.345c0,.275.184.459.459.459h2.754c.275,0,.459-.184.459-.459v-7.345c0-.184-.275-.459-.459-.459ZM248.47,77.81h-1.836v-6.427h1.836v6.427Z"/>
  <g>
    <path class="uuid-20271670-b09a-4c36-bff9-dcc89b8277b5" d="M215.196,87.193l1.13-.19v2.989c.35-.44.909-.71,1.539-.71,1.27,0,2.259,1.129,2.259,2.549,0,1.429-1.02,2.548-2.329,2.548-.589,0-1.109-.24-1.489-.689v.64h-1.109v-7.136ZM219.014,91.83c0-.91-.64-1.599-1.489-1.599-.5,0-.909.2-1.199.56v2.089c.29.35.72.56,1.199.56.859,0,1.489-.689,1.489-1.609Z"/>
    <path class="uuid-20271670-b09a-4c36-bff9-dcc89b8277b5" d="M221.096,92.889c0-.899.74-1.469,1.919-1.469.47,0,.91.1,1.35.32v-.56c0-.66-.38-1-1.149-1-.42,0-.88.12-1.459.39l-.4-.82c.75-.34,1.409-.51,2.079-.51,1.31,0,2.049.66,2.049,1.819v3.268h-1.119v-.52c-.43.419-.909.609-1.489.609-1.05,0-1.779-.629-1.779-1.529ZM223.185,93.619c.45,0,.84-.13,1.18-.42v-.81c-.359-.17-.72-.24-1.149-.24-.649,0-1.06.27-1.06.72,0,.459.4.75,1.029.75Z"/>
    <path class="uuid-20271670-b09a-4c36-bff9-dcc89b8277b5" d="M226.406,93.749l.529-.75c.66.41,1.1.569,1.609.569.6,0,1.01-.28,1.01-.68,0-.31-.21-.47-.7-.569l-.879-.15c-.979-.18-1.449-.63-1.449-1.379,0-.939.77-1.549,1.938-1.549.7,0,1.329.2,1.969.6l-.529.75c-.51-.33-1-.48-1.509-.48-.521,0-.86.22-.86.58,0,.32.181.46.7.55l.89.17c.999.18,1.479.64,1.479,1.389,0,.919-.879,1.629-2.049,1.629-.859,0-1.619-.24-2.148-.68Z"/>
    <path class="uuid-20271670-b09a-4c36-bff9-dcc89b8277b5" d="M232.165,93.03v-2.809h-1v-.899h1v-1.379l1.129-.24v1.619h1.39v.899h-1.39v2.559c0,.49.19.68.7.68.22,0,.38-.03.68-.12v.949c-.29.09-.67.14-.97.14-1.01,0-1.539-.48-1.539-1.399Z"/>
    <path class="uuid-20271670-b09a-4c36-bff9-dcc89b8277b5" d="M235.545,87.613c0-.38.31-.7.7-.7.379,0,.699.32.699.7s-.32.689-.699.689c-.391,0-.7-.31-.7-.689ZM235.675,89.321h1.13v5.007h-1.13v-5.007Z"/>
    <path class="uuid-20271670-b09a-4c36-bff9-dcc89b8277b5" d="M237.976,91.83c0-1.479,1.079-2.589,2.519-2.589,1.43,0,2.509,1.109,2.509,2.589s-1.079,2.588-2.509,2.588c-1.439,0-2.519-1.109-2.519-2.588ZM241.894,91.83c0-.93-.59-1.629-1.399-1.629-.819,0-1.409.7-1.409,1.629,0,.939.59,1.629,1.409,1.629.81,0,1.399-.689,1.399-1.629Z"/>
    <path class="uuid-20271670-b09a-4c36-bff9-dcc89b8277b5" d="M244.175,89.321h1.13v.82c.38-.59.93-.9,1.579-.9,1.029,0,1.749.73,1.749,1.789v3.298h-1.14v-2.979c0-.729-.43-1.199-1.1-1.199-.459,0-.829.21-1.089.61v3.568h-1.13v-5.007Z"/>
  </g>
  <g>
    <path id="uuid-ad7b967c-6525-4ef4-897f-05ffea25eaad" data-name="path4714-0-3-6" class="uuid-20271670-b09a-4c36-bff9-dcc89b8277b5" d="M486.07,135.579c0,.092-.092.184-.092.275v15.425c0,.551.367.918.918.918h52.794c.551,0,.918-.367.918-.918v-15.425c0-.092,0-.184-.092-.275.092-.459-.092-.826-.459-1.102l-8.447-4.132c-.092-.092-.275-.092-.367-.092h-34.615c-.092,0-.275,0-.367.092l-9.733,4.132c-.459.184-.643.643-.459,1.102ZM496.813,132.09h34.248l5.693,2.754h-46.459l6.519-2.754ZM487.815,136.957h50.958v13.405h-50.958v-13.405Z"/>
    <circle id="uuid-4d20c225-17c6-40fb-993d-80d3d7fc45ea" data-name="circle4716-4-7" class="uuid-20271670-b09a-4c36-bff9-dcc89b8277b5" cx="492.497" cy="143.567" r="1.285"/>
    <circle id="uuid-916288a2-8c5c-4679-8790-f721002ed8e1" data-name="circle4718-3-6" class="uuid-20271670-b09a-4c36-bff9-dcc89b8277b5" cx="496.904" cy="143.567" r="1.285"/>
    <path id="uuid-c256471c-0679-479a-ae72-007ff374f63e" data-name="path4720-6-3-4" class="uuid-20271670-b09a-4c36-bff9-dcc89b8277b5" d="M535.835,139.344h-2.754c-.275,0-.459.184-.459.459v7.345c0,.275.184.459.459.459h2.754c.275,0,.459-.184.459-.459v-7.345c0-.184-.275-.459-.459-.459ZM535.376,146.689h-1.836v-6.427h1.836v6.427Z"/>
    <path id="uuid-8fb61204-4386-4078-aa99-507254669815" data-name="path4722-3-8-4" class="uuid-20271670-b09a-4c36-bff9-dcc89b8277b5" d="M530.326,139.344h-2.754c-.275,0-.459.184-.459.459v7.345c0,.275.184.459.459.459h2.754c.275,0,.459-.184.459-.459v-7.345c0-.184-.275-.459-.459-.459ZM529.867,146.689h-1.836v-6.427h1.836v6.427Z"/>
  </g>
  <g>
    <path class="uuid-20271670-b09a-4c36-bff9-dcc89b8277b5" d="M495.698,162.629l.529-.75c.66.41,1.1.569,1.609.569.6,0,1.01-.28,1.01-.68,0-.31-.21-.47-.7-.569l-.879-.15c-.979-.18-1.449-.63-1.449-1.379,0-.939.77-1.549,1.938-1.549.7,0,1.329.2,1.969.6l-.529.75c-.51-.33-1-.48-1.509-.48-.521,0-.86.22-.86.58,0,.32.181.46.7.55l.89.17c.999.18,1.479.64,1.479,1.389,0,.919-.879,1.629-2.049,1.629-.859,0-1.619-.24-2.148-.68Z"/>
    <path class="uuid-20271670-b09a-4c36-bff9-dcc89b8277b5" d="M500.758,160.71c0-1.469,1.06-2.589,2.438-2.589,1.369,0,2.369,1.089,2.369,2.589v.27h-3.698c.11.81.72,1.399,1.499,1.399.47,0,.91-.18,1.189-.47l.739.669c-.609.51-1.219.73-1.979.73-1.439,0-2.559-1.129-2.559-2.599ZM504.496,160.28c-.12-.73-.64-1.239-1.31-1.239-.68,0-1.18.49-1.31,1.239h2.619Z"/>
    <path class="uuid-20271670-b09a-4c36-bff9-dcc89b8277b5" d="M506.717,158.201h1.13v1.08c.279-.76.76-1.169,1.379-1.169.19.01.32.03.49.1v.989c-.181-.07-.41-.12-.62-.12-.55,0-.999.31-1.249.83v3.298h-1.13v-5.007Z"/>
    <path class="uuid-20271670-b09a-4c36-bff9-dcc89b8277b5" d="M510.208,158.201h1.229l1.399,3.638,1.39-3.638h1.179l-2.059,5.007h-1.1l-2.038-5.007Z"/>
    <path class="uuid-20271670-b09a-4c36-bff9-dcc89b8277b5" d="M515.838,160.71c0-1.469,1.06-2.589,2.438-2.589,1.369,0,2.369,1.089,2.369,2.589v.27h-3.698c.11.81.72,1.399,1.499,1.399.47,0,.91-.18,1.189-.47l.739.669c-.609.51-1.219.73-1.979.73-1.439,0-2.559-1.129-2.559-2.599ZM519.576,160.28c-.12-.73-.64-1.239-1.31-1.239-.68,0-1.18.49-1.31,1.239h2.619Z"/>
    <path class="uuid-20271670-b09a-4c36-bff9-dcc89b8277b5" d="M521.797,158.201h1.13v1.08c.279-.76.76-1.169,1.379-1.169.19.01.32.03.49.1v.989c-.181-.07-.41-.12-.62-.12-.55,0-.999.31-1.249.83v3.298h-1.13v-5.007Z"/>
    <path class="uuid-20271670-b09a-4c36-bff9-dcc89b8277b5" d="M525.726,156.072l1.13-.19v2.989c.35-.44.909-.71,1.539-.71,1.27,0,2.259,1.129,2.259,2.549,0,1.429-1.02,2.548-2.329,2.548-.589,0-1.109-.24-1.489-.689v.64h-1.109v-7.136ZM529.545,160.71c0-.91-.64-1.599-1.489-1.599-.5,0-.909.2-1.199.56v2.089c.29.35.72.56,1.199.56.859,0,1.489-.689,1.489-1.609Z"/>
  </g>
  <path id="uuid-9fbbce75-d5ca-4007-b014-b3143bb426e8" data-name="path4714-0-3-6" class="uuid-20271670-b09a-4c36-bff9-dcc89b8277b5" d="M392.23,183.532c0,.092-.092.184-.092.275v15.425c0,.551.367.918.918.918h52.794c.551,0,.918-.367.918-.918v-15.425c0-.092,0-.184-.092-.275.092-.459-.092-.826-.459-1.102l-8.447-4.132c-.092-.092-.275-.092-.367-.092h-34.615c-.092,0-.275,0-.367.092l-9.733,4.132c-.459.184-.643.643-.459,1.102ZM402.973,180.043h34.248l5.693,2.754h-46.459l6.519-2.754ZM393.975,184.909h50.958v13.405h-50.958v-13.405Z"/>
  <circle id="uuid-7b62fddb-7894-4bbe-9715-cead14ef50fc" data-name="circle4716-4-7" class="uuid-20271670-b09a-4c36-bff9-dcc89b8277b5" cx="398.657" cy="191.52" r="1.285"/>
  <circle id="uuid-ed369e07-90f1-4b2a-8f65-000bdd15d1c1" data-name="circle4718-3-6" class="uuid-20271670-b09a-4c36-bff9-dcc89b8277b5" cx="403.065" cy="191.52" r="1.285"/>
  <path id="uuid-ce0267d0-1e3e-42bb-9f7f-cf32219b7c7a" data-name="path4720-6-3-4" class="uuid-20271670-b09a-4c36-bff9-dcc89b8277b5" d="M441.995,187.296h-2.754c-.275,0-.459.184-.459.459v7.345c0,.275.184.459.459.459h2.754c.275,0,.459-.184.459-.459v-7.345c0-.184-.275-.459-.459-.459ZM441.536,194.641h-1.836v-6.427h1.836v6.427Z"/>
  <path id="uuid-23a219ab-675f-4375-bde0-c6b7789adb93" data-name="path4722-3-8-4" class="uuid-20271670-b09a-4c36-bff9-dcc89b8277b5" d="M436.486,187.296h-2.754c-.275,0-.459.184-.459.459v7.345c0,.275.184.459.459.459h2.754c.275,0,.459-.184.459-.459v-7.345c0-.184-.275-.459-.459-.459ZM436.027,194.641h-1.836v-6.427h1.836v6.427Z"/>
  <g>
    <path class="uuid-20271670-b09a-4c36-bff9-dcc89b8277b5" d="M402.414,210.581l.529-.75c.66.41,1.1.569,1.609.569.6,0,1.01-.28,1.01-.68,0-.31-.21-.47-.7-.569l-.879-.15c-.979-.18-1.449-.63-1.449-1.379,0-.939.77-1.549,1.938-1.549.7,0,1.329.2,1.969.6l-.529.75c-.51-.33-1-.48-1.51-.48-.52,0-.859.22-.859.58,0,.32.181.46.7.55l.89.17c.999.18,1.479.64,1.479,1.389,0,.919-.879,1.629-2.049,1.629-.859,0-1.619-.24-2.148-.68Z"/>
    <path class="uuid-20271670-b09a-4c36-bff9-dcc89b8277b5" d="M407.473,208.662c0-1.469,1.06-2.589,2.438-2.589,1.369,0,2.369,1.089,2.369,2.589v.27h-3.698c.11.81.72,1.399,1.499,1.399.47,0,.91-.18,1.189-.47l.739.669c-.609.51-1.219.73-1.979.73-1.439,0-2.559-1.129-2.559-2.599ZM411.212,208.232c-.12-.73-.64-1.239-1.31-1.239-.68,0-1.18.49-1.31,1.239h2.619Z"/>
    <path class="uuid-20271670-b09a-4c36-bff9-dcc89b8277b5" d="M413.432,206.153h1.13v1.08c.279-.76.76-1.169,1.379-1.169.19.01.32.03.49.1v.989c-.18-.07-.41-.12-.62-.12-.55,0-.999.31-1.249.83v3.298h-1.13v-5.007Z"/>
    <path class="uuid-20271670-b09a-4c36-bff9-dcc89b8277b5" d="M416.924,206.153h1.229l1.399,3.638,1.39-3.638h1.179l-2.059,5.007h-1.1l-2.038-5.007Z"/>
    <path class="uuid-20271670-b09a-4c36-bff9-dcc89b8277b5" d="M422.553,208.662c0-1.469,1.06-2.589,2.438-2.589,1.369,0,2.369,1.089,2.369,2.589v.27h-3.698c.11.81.72,1.399,1.499,1.399.47,0,.91-.18,1.189-.47l.739.669c-.609.51-1.219.73-1.979.73-1.439,0-2.559-1.129-2.559-2.599ZM426.292,208.232c-.12-.73-.64-1.239-1.31-1.239-.68,0-1.18.49-1.31,1.239h2.619Z"/>
    <path class="uuid-20271670-b09a-4c36-bff9-dcc89b8277b5" d="M428.512,206.153h1.13v1.08c.279-.76.76-1.169,1.379-1.169.19.01.32.03.49.1v.989c-.18-.07-.41-.12-.62-.12-.55,0-.999.31-1.249.83v3.298h-1.13v-5.007Z"/>
    <path class="uuid-20271670-b09a-4c36-bff9-dcc89b8277b5" d="M431.983,208.662c0-1.449,1.1-2.589,2.528-2.589.78,0,1.499.31,1.999.85l-.699.729c-.35-.39-.78-.589-1.26-.589-.81,0-1.438.7-1.438,1.599,0,.909.629,1.599,1.438,1.599.479,0,.91-.2,1.26-.58l.699.719c-.5.54-1.219.85-1.999.85-1.429,0-2.528-1.129-2.528-2.588Z"/>
  </g>
  <path id="uuid-67ee3d6d-ecea-47d5-878d-3515b46c41d3" data-name="path4714-0-3-6" class="uuid-20271670-b09a-4c36-bff9-dcc89b8277b5" d="M486.07,183.532c0,.092-.092.184-.092.275v15.425c0,.551.367.918.918.918h52.794c.551,0,.918-.367.918-.918v-15.425c0-.092,0-.184-.092-.275.092-.459-.092-.826-.459-1.102l-8.447-4.132c-.092-.092-.275-.092-.367-.092h-34.615c-.092,0-.275,0-.367.092l-9.733,4.132c-.459.184-.643.643-.459,1.102ZM496.813,180.043h34.248l5.693,2.754h-46.459l6.519-2.754ZM487.815,184.909h50.958v13.405h-50.958v-13.405Z"/>
  <circle id="uuid-167d2016-ea97-4041-8fbc-66332039cece" data-name="circle4716-4-7" class="uuid-20271670-b09a-4c36-bff9-dcc89b8277b5" cx="492.497" cy="191.52" r="1.285"/>
  <circle id="uuid-76168d44-c2e3-4d3c-8dc2-71935bc118c3" data-name="circle4718-3-6" class="uuid-20271670-b09a-4c36-bff9-dcc89b8277b5" cx="496.904" cy="191.52" r="1.285"/>
  <path id="uuid-4201864b-28c9-48ff-b145-d9e10634e42c" data-name="path4720-6-3-4" class="uuid-20271670-b09a-4c36-bff9-dcc89b8277b5" d="M535.835,187.296h-2.754c-.275,0-.459.184-.459.459v7.345c0,.275.184.459.459.459h2.754c.275,0,.459-.184.459-.459v-7.345c0-.184-.275-.459-.459-.459ZM535.376,194.641h-1.836v-6.427h1.836v6.427Z"/>
  <path id="uuid-72b1853f-8e6d-465b-b84f-01a5324c45a5" data-name="path4722-3-8-4" class="uuid-20271670-b09a-4c36-bff9-dcc89b8277b5" d="M530.326,187.296h-2.754c-.275,0-.459.184-.459.459v7.345c0,.275.184.459.459.459h2.754c.275,0,.459-.184.459-.459v-7.345c0-.184-.275-.459-.459-.459ZM529.867,194.641h-1.836v-6.427h1.836v6.427Z"/>
  <g>
    <path class="uuid-20271670-b09a-4c36-bff9-dcc89b8277b5" d="M495.818,210.581l.529-.75c.66.41,1.1.569,1.609.569.6,0,1.01-.28,1.01-.68,0-.31-.21-.47-.7-.569l-.879-.15c-.979-.18-1.449-.63-1.449-1.379,0-.939.77-1.549,1.938-1.549.7,0,1.329.2,1.969.6l-.529.75c-.51-.33-1-.48-1.51-.48-.52,0-.859.22-.859.58,0,.32.181.46.7.55l.89.17c.999.18,1.479.64,1.479,1.389,0,.919-.879,1.629-2.049,1.629-.859,0-1.619-.24-2.148-.68Z"/>
    <path class="uuid-20271670-b09a-4c36-bff9-dcc89b8277b5" d="M500.878,208.662c0-1.469,1.06-2.589,2.438-2.589,1.369,0,2.369,1.089,2.369,2.589v.27h-3.698c.11.81.72,1.399,1.499,1.399.47,0,.91-.18,1.189-.47l.739.669c-.609.51-1.219.73-1.979.73-1.439,0-2.559-1.129-2.559-2.599ZM504.616,208.232c-.12-.73-.64-1.239-1.31-1.239-.68,0-1.18.49-1.31,1.239h2.619Z"/>
    <path class="uuid-20271670-b09a-4c36-bff9-dcc89b8277b5" d="M506.837,206.153h1.13v1.08c.279-.76.76-1.169,1.379-1.169.19.01.32.03.49.1v.989c-.18-.07-.41-.12-.62-.12-.55,0-.999.31-1.249.83v3.298h-1.13v-5.007Z"/>
    <path class="uuid-20271670-b09a-4c36-bff9-dcc89b8277b5" d="M510.328,206.153h1.229l1.399,3.638,1.39-3.638h1.179l-2.059,5.007h-1.1l-2.038-5.007Z"/>
    <path class="uuid-20271670-b09a-4c36-bff9-dcc89b8277b5" d="M515.958,208.662c0-1.469,1.06-2.589,2.438-2.589,1.369,0,2.369,1.089,2.369,2.589v.27h-3.698c.11.81.72,1.399,1.499,1.399.47,0,.91-.18,1.189-.47l.739.669c-.609.51-1.219.73-1.979.73-1.439,0-2.559-1.129-2.559-2.599ZM519.696,208.232c-.12-.73-.64-1.239-1.31-1.239-.68,0-1.18.49-1.31,1.239h2.619Z"/>
    <path class="uuid-20271670-b09a-4c36-bff9-dcc89b8277b5" d="M521.917,206.153h1.13v1.08c.279-.76.76-1.169,1.379-1.169.19.01.32.03.49.1v.989c-.18-.07-.41-.12-.62-.12-.55,0-.999.31-1.249.83v3.298h-1.13v-5.007Z"/>
    <path class="uuid-20271670-b09a-4c36-bff9-dcc89b8277b5" d="M525.387,208.662c0-1.429,1.029-2.549,2.339-2.549.569,0,1.089.23,1.459.65v-2.769l1.13-.2v7.366h-1.12v-.66c-.359.45-.919.709-1.549.709-1.27,0-2.259-1.129-2.259-2.548ZM529.185,209.711v-2.109c-.29-.34-.72-.54-1.189-.54-.859,0-1.499.68-1.499,1.599,0,.909.64,1.599,1.499,1.599.49,0,.899-.19,1.189-.55Z"/>
  </g>
  <g>
    <path class="uuid-20271670-b09a-4c36-bff9-dcc89b8277b5" d="M186.876,189.827c0-2.029,1.579-3.608,3.618-3.608,1.069,0,2.089.459,2.729,1.249l-.8.78c-.5-.62-1.189-.95-1.929-.95-1.359,0-2.389,1.089-2.389,2.529s1.029,2.529,2.389,2.529c.739,0,1.429-.33,1.929-.95l.8.78c-.64.79-1.659,1.249-2.729,1.249-2.039,0-3.618-1.579-3.618-3.608Z"/>
    <path class="uuid-20271670-b09a-4c36-bff9-dcc89b8277b5" d="M194.296,186.159l1.129-.2v7.366h-1.129v-7.166Z"/>
    <path class="uuid-20271670-b09a-4c36-bff9-dcc89b8277b5" d="M196.556,191.886c0-.899.739-1.469,1.919-1.469.47,0,.909.1,1.349.32v-.56c0-.66-.38-1-1.149-1-.42,0-.879.12-1.459.39l-.4-.82c.75-.34,1.409-.51,2.079-.51,1.31,0,2.049.66,2.049,1.819v3.268h-1.119v-.52c-.43.419-.91.609-1.489.609-1.049,0-1.779-.629-1.779-1.529ZM198.645,192.616c.45,0,.839-.13,1.179-.42v-.81c-.36-.17-.72-.24-1.149-.24-.649,0-1.06.27-1.06.72,0,.459.4.75,1.03.75Z"/>
    <path class="uuid-20271670-b09a-4c36-bff9-dcc89b8277b5" d="M201.866,192.746l.53-.75c.66.41,1.099.569,1.609.569.6,0,1.009-.28,1.009-.68,0-.31-.209-.47-.699-.569l-.88-.15c-.979-.18-1.449-.63-1.449-1.379,0-.939.77-1.549,1.939-1.549.7,0,1.33.2,1.969.6l-.53.75c-.51-.33-1-.48-1.509-.48-.52,0-.859.22-.859.58,0,.32.18.46.7.55l.889.17c1,.18,1.479.64,1.479,1.389,0,.919-.88,1.629-2.049,1.629-.859,0-1.619-.24-2.148-.68Z"/>
    <path class="uuid-20271670-b09a-4c36-bff9-dcc89b8277b5" d="M206.655,192.746l.53-.75c.659.41,1.099.569,1.609.569.6,0,1.009-.28,1.009-.68,0-.31-.209-.47-.699-.569l-.88-.15c-.979-.18-1.449-.63-1.449-1.379,0-.939.77-1.549,1.939-1.549.7,0,1.33.2,1.969.6l-.53.75c-.51-.33-1-.48-1.509-.48-.52,0-.859.22-.859.58,0,.32.18.46.699.55l.89.17c1,.18,1.479.64,1.479,1.389,0,.919-.88,1.629-2.049,1.629-.86,0-1.619-.24-2.149-.68Z"/>
    <path class="uuid-20271670-b09a-4c36-bff9-dcc89b8277b5" d="M211.895,188.318h1.129v1.08c.28-.76.759-1.169,1.379-1.169.19.01.32.03.49.1v.989c-.18-.07-.41-.12-.62-.12-.549,0-1,.31-1.249.83v3.298h-1.129v-5.007Z"/>
    <path class="uuid-20271670-b09a-4c36-bff9-dcc89b8277b5" d="M215.365,190.827c0-1.479,1.08-2.589,2.519-2.589,1.429,0,2.509,1.109,2.509,2.589s-1.08,2.588-2.509,2.588c-1.439,0-2.519-1.109-2.519-2.588ZM219.283,190.827c0-.93-.59-1.629-1.399-1.629-.819,0-1.409.7-1.409,1.629,0,.939.59,1.629,1.409,1.629.81,0,1.399-.689,1.399-1.629Z"/>
    <path class="uuid-20271670-b09a-4c36-bff9-dcc89b8277b5" d="M221.335,190.827c0-1.479,1.08-2.589,2.519-2.589,1.429,0,2.509,1.109,2.509,2.589s-1.08,2.588-2.509,2.588c-1.439,0-2.519-1.109-2.519-2.588ZM225.253,190.827c0-.93-.59-1.629-1.399-1.629-.819,0-1.409.7-1.409,1.629,0,.939.59,1.629,1.409,1.629.81,0,1.399-.689,1.399-1.629Z"/>
    <path class="uuid-20271670-b09a-4c36-bff9-dcc89b8277b5" d="M227.535,188.318h1.129v.79c.37-.57.87-.87,1.479-.87.689,0,1.219.37,1.479.959.39-.629.949-.959,1.659-.959.97,0,1.639.75,1.639,1.809v3.278h-1.129v-3.028c0-.7-.39-1.149-1.009-1.149-.41,0-.75.19-1,.6.01.1.02.2.02.3v3.278h-1.139v-3.028c0-.7-.39-1.149-1.01-1.149-.41,0-.74.19-.989.58v3.598h-1.129v-5.007Z"/>
    <path class="uuid-20271670-b09a-4c36-bff9-dcc89b8277b5" d="M238.684,186.329h1.169l3.648,5.087-.02-5.087h1.129v6.996h-1.069l-3.748-5.227.02,5.227h-1.129v-6.996Z"/>
    <path class="uuid-20271670-b09a-4c36-bff9-dcc89b8277b5" d="M245.925,190.827c0-1.469,1.06-2.589,2.438-2.589,1.37,0,2.369,1.089,2.369,2.589v.27h-3.698c.11.81.72,1.399,1.499,1.399.47,0,.91-.18,1.189-.47l.74.669c-.61.51-1.219.73-1.979.73-1.439,0-2.559-1.129-2.559-2.599ZM249.662,190.397c-.12-.73-.64-1.239-1.309-1.239-.68,0-1.179.49-1.309,1.239h2.618Z"/>
    <path class="uuid-20271670-b09a-4c36-bff9-dcc89b8277b5" d="M252.354,192.026v-2.809h-1v-.899h1v-1.379l1.129-.24v1.619h1.389v.899h-1.389v2.559c0,.49.19.68.7.68.22,0,.379-.03.68-.12v.949c-.29.09-.67.14-.97.14-1.009,0-1.539-.48-1.539-1.399Z"/>
    <path class="uuid-20271670-b09a-4c36-bff9-dcc89b8277b5" d="M255.505,188.318h1.079l.88,3.528,1.039-3.528h.95l1.029,3.528.879-3.528h1.05l-1.35,5.007h-1.079l-1.02-3.528-1.009,3.528h-1.1l-1.349-5.007Z"/>
    <path class="uuid-20271670-b09a-4c36-bff9-dcc89b8277b5" d="M263.004,190.827c0-1.479,1.08-2.589,2.519-2.589,1.429,0,2.509,1.109,2.509,2.589s-1.08,2.588-2.509,2.588c-1.439,0-2.519-1.109-2.519-2.588ZM266.922,190.827c0-.93-.59-1.629-1.399-1.629-.819,0-1.409.7-1.409,1.629,0,.939.59,1.629,1.409,1.629.81,0,1.399-.689,1.399-1.629Z"/>
    <path class="uuid-20271670-b09a-4c36-bff9-dcc89b8277b5" d="M269.204,188.318h1.129v1.08c.28-.76.759-1.169,1.379-1.169.19.01.32.03.49.1v.989c-.18-.07-.41-.12-.62-.12-.549,0-.999.31-1.249.83v3.298h-1.129v-5.007Z"/>
    <path class="uuid-20271670-b09a-4c36-bff9-dcc89b8277b5" d="M273.134,186.139l1.129-.19v4.498l2.079-2.129h1.299l-2.309,2.319,2.429,2.688h-1.439l-2.059-2.309v2.309h-1.129v-7.186Z"/>
    <path class="uuid-20271670-b09a-4c36-bff9-dcc89b8277b5" d="M196.494,199.479l-1.239.53v-.97l1.639-.709h.69v6.996h-1.09v-5.847Z"/>
    <path class="uuid-20271670-b09a-4c36-bff9-dcc89b8277b5" d="M202.663,199.289h-4.018v-.959h5.197v.83l-3.158,6.167h-1.29l3.268-6.037Z"/>
    <path class="uuid-20271670-b09a-4c36-bff9-dcc89b8277b5" d="M204.765,204.536l2.868-2.999c.51-.54.68-.889.68-1.339,0-.58-.54-1.02-1.269-1.02-.65,0-1.149.229-1.819.85l-.62-.75c.77-.709,1.579-1.059,2.459-1.059,1.369,0,2.309.779,2.309,1.919,0,.68-.24,1.169-.989,1.959l-2.229,2.298,3.348-.01v.939h-4.737v-.79Z"/>
    <path class="uuid-20271670-b09a-4c36-bff9-dcc89b8277b5" d="M210.505,204.696c0-.399.31-.729.7-.729s.699.33.699.729-.31.72-.699.72-.7-.32-.7-.72Z"/>
    <path class="uuid-20271670-b09a-4c36-bff9-dcc89b8277b5" d="M212.965,204.536l2.868-2.999c.51-.54.68-.889.68-1.339,0-.58-.54-1.02-1.269-1.02-.65,0-1.149.229-1.819.85l-.62-.75c.77-.709,1.579-1.059,2.459-1.059,1.369,0,2.309.779,2.309,1.919,0,.68-.24,1.169-.989,1.959l-2.229,2.298,3.348-.01v.939h-4.737v-.79Z"/>
    <path class="uuid-20271670-b09a-4c36-bff9-dcc89b8277b5" d="M218.505,204.486l.66-.75c.6.54,1.14.76,1.839.76.889,0,1.489-.55,1.489-1.369,0-.78-.629-1.319-1.519-1.319-.459,0-.89.12-1.379.37l-.77-.229.16-3.618h4.248v.939h-3.288l-.09,2.009c.5-.24.949-.32,1.429-.32,1.389,0,2.318.85,2.318,2.109,0,1.419-1.059,2.369-2.638,2.369-.939,0-1.779-.32-2.459-.949Z"/>
    <path class="uuid-20271670-b09a-4c36-bff9-dcc89b8277b5" d="M224.505,204.696c0-.399.31-.729.7-.729s.699.33.699.729-.31.72-.699.72-.7-.32-.7-.72Z"/>
    <path class="uuid-20271670-b09a-4c36-bff9-dcc89b8277b5" d="M226.965,204.536l2.868-2.999c.51-.54.68-.889.68-1.339,0-.58-.54-1.02-1.269-1.02-.65,0-1.149.229-1.819.85l-.62-.75c.77-.709,1.579-1.059,2.459-1.059,1.369,0,2.309.779,2.309,1.919,0,.68-.24,1.169-.989,1.959l-2.229,2.298,3.348-.01v.939h-4.737v-.79Z"/>
    <path class="uuid-20271670-b09a-4c36-bff9-dcc89b8277b5" d="M232.505,204.486l.66-.75c.6.54,1.14.76,1.839.76.889,0,1.489-.55,1.489-1.369,0-.78-.629-1.319-1.519-1.319-.459,0-.89.12-1.379.37l-.77-.229.16-3.618h4.248v.939h-3.288l-.09,2.009c.5-.24.949-.32,1.429-.32,1.389,0,2.318.85,2.318,2.109,0,1.419-1.059,2.369-2.638,2.369-.939,0-1.779-.32-2.459-.949Z"/>
    <path class="uuid-20271670-b09a-4c36-bff9-dcc89b8277b5" d="M238.465,204.536l2.868-2.999c.51-.54.68-.889.68-1.339,0-.58-.54-1.02-1.269-1.02-.65,0-1.149.229-1.819.85l-.62-.75c.77-.709,1.579-1.059,2.459-1.059,1.369,0,2.309.779,2.309,1.919,0,.68-.24,1.169-.989,1.959l-2.229,2.298,3.348-.01v.939h-4.737v-.79Z"/>
    <path class="uuid-20271670-b09a-4c36-bff9-dcc89b8277b5" d="M244.205,204.696c0-.399.31-.729.7-.729s.699.33.699.729-.31.72-.699.72-.7-.32-.7-.72Z"/>
    <path class="uuid-20271670-b09a-4c36-bff9-dcc89b8277b5" d="M246.455,201.827c0-2.149,1.169-3.608,2.869-3.608s2.858,1.459,2.858,3.608-1.159,3.598-2.858,3.598-2.869-1.459-2.869-3.598ZM251.093,201.827c0-1.609-.689-2.639-1.769-2.639s-1.779,1.029-1.779,2.639c0,1.599.699,2.628,1.779,2.628s1.769-1.029,1.769-2.628Z"/>
    <path class="uuid-20271670-b09a-4c36-bff9-dcc89b8277b5" d="M255.893,198.329h1.1l-4.008,9.085h-1.089l3.998-9.085Z"/>
    <path class="uuid-20271670-b09a-4c36-bff9-dcc89b8277b5" d="M257.725,204.536l2.868-2.999c.51-.54.68-.889.68-1.339,0-.58-.54-1.02-1.269-1.02-.65,0-1.149.229-1.819.85l-.62-.75c.77-.709,1.579-1.059,2.459-1.059,1.369,0,2.309.779,2.309,1.919,0,.68-.24,1.169-.989,1.959l-2.229,2.298,3.348-.01v.939h-4.737v-.79Z"/>
    <path class="uuid-20271670-b09a-4c36-bff9-dcc89b8277b5" d="M266.992,203.596h-3.848v-.899l3.688-4.368h1.279v4.317h.919v.95h-.919v1.729h-1.12v-1.729ZM266.992,202.647v-3.038l-2.548,3.038h2.548Z"/>
  </g>
  <g>
    <path class="uuid-20271670-b09a-4c36-bff9-dcc89b8277b5" d="M363.271,42.571l.649-.879c.899.74,1.549,1.02,2.358,1.02.92,0,1.56-.47,1.56-1.12,0-.569-.34-.839-1.27-1l-1.289-.22c-1.21-.22-1.799-.819-1.799-1.779,0-1.27,1.009-2.109,2.578-2.109,1.05,0,2.009.31,2.809.899l-.609.899c-.7-.53-1.449-.81-2.239-.81-.84,0-1.399.43-1.399,1,0,.51.32.77,1.08.89l1.249.21c1.409.25,2.068.869,2.068,1.929,0,1.289-1.139,2.199-2.808,2.199-1.1,0-2.05-.38-2.938-1.129Z"/>
    <path class="uuid-20271670-b09a-4c36-bff9-dcc89b8277b5" d="M370.57,42.291v-2.809h-.999v-.899h.999v-1.379l1.129-.24v1.619h1.39v.899h-1.39v2.559c0,.49.19.68.7.68.22,0,.38-.03.68-.12v.949c-.29.09-.67.14-.97.14-1.01,0-1.539-.48-1.539-1.399Z"/>
    <path class="uuid-20271670-b09a-4c36-bff9-dcc89b8277b5" d="M374.05,41.881v-3.298h1.14v2.968c0,.74.43,1.209,1.1,1.209.45,0,.829-.2,1.09-.6v-3.578h1.129v5.007h-1.129v-.81c-.38.59-.92.89-1.59.89-1.02,0-1.739-.74-1.739-1.789Z"/>
    <path class="uuid-20271670-b09a-4c36-bff9-dcc89b8277b5" d="M379.68,41.092c0-1.429,1.029-2.549,2.339-2.549.569,0,1.089.23,1.459.65v-2.769l1.13-.2v7.366h-1.12v-.66c-.359.45-.919.709-1.549.709-1.27,0-2.259-1.129-2.259-2.548ZM383.478,42.141v-2.109c-.29-.34-.72-.54-1.189-.54-.859,0-1.499.68-1.499,1.599,0,.909.64,1.599,1.499,1.599.49,0,.899-.19,1.189-.55Z"/>
    <path class="uuid-20271670-b09a-4c36-bff9-dcc89b8277b5" d="M385.78,41.092c0-1.469,1.06-2.589,2.438-2.589,1.369,0,2.369,1.089,2.369,2.589v.27h-3.698c.11.81.72,1.399,1.499,1.399.47,0,.91-.18,1.189-.47l.739.669c-.609.51-1.219.73-1.979.73-1.439,0-2.559-1.129-2.559-2.599ZM389.518,40.662c-.12-.73-.64-1.239-1.31-1.239-.68,0-1.18.49-1.31,1.239h2.619Z"/>
    <path class="uuid-20271670-b09a-4c36-bff9-dcc89b8277b5" d="M391.74,38.583h1.13v.82c.38-.59.93-.9,1.579-.9,1.029,0,1.749.73,1.749,1.789v3.298h-1.14v-2.979c0-.729-.43-1.199-1.1-1.199-.459,0-.829.21-1.089.61v3.568h-1.13v-5.007Z"/>
    <path class="uuid-20271670-b09a-4c36-bff9-dcc89b8277b5" d="M398.03,42.291v-2.809h-1v-.899h1v-1.379l1.129-.24v1.619h1.39v.899h-1.39v2.559c0,.49.19.68.7.68.22,0,.38-.03.68-.12v.949c-.29.09-.67.14-.97.14-1.01,0-1.539-.48-1.539-1.399Z"/>
    <path class="uuid-20271670-b09a-4c36-bff9-dcc89b8277b5" d="M403.94,36.594h1.169l3.648,5.087-.021-5.087h1.13v6.996h-1.069l-3.748-5.227.02,5.227h-1.129v-6.996Z"/>
    <path class="uuid-20271670-b09a-4c36-bff9-dcc89b8277b5" d="M411.179,41.092c0-1.469,1.06-2.589,2.438-2.589,1.369,0,2.369,1.089,2.369,2.589v.27h-3.698c.11.81.72,1.399,1.499,1.399.47,0,.91-.18,1.189-.47l.739.669c-.609.51-1.219.73-1.979.73-1.439,0-2.559-1.129-2.559-2.599ZM414.918,40.662c-.12-.73-.64-1.239-1.31-1.239-.68,0-1.18.49-1.31,1.239h2.619Z"/>
    <path class="uuid-20271670-b09a-4c36-bff9-dcc89b8277b5" d="M417.609,42.291v-2.809h-.999v-.899h.999v-1.379l1.129-.24v1.619h1.39v.899h-1.39v2.559c0,.49.19.68.7.68.22,0,.38-.03.68-.12v.949c-.29.09-.67.14-.97.14-1.01,0-1.539-.48-1.539-1.399Z"/>
    <path class="uuid-20271670-b09a-4c36-bff9-dcc89b8277b5" d="M420.759,38.583h1.08l.879,3.528,1.04-3.528h.949l1.029,3.528.88-3.528h1.049l-1.349,5.007h-1.08l-1.02-3.528-1.009,3.528h-1.1l-1.35-5.007Z"/>
    <path class="uuid-20271670-b09a-4c36-bff9-dcc89b8277b5" d="M428.259,41.092c0-1.479,1.079-2.589,2.519-2.589,1.43,0,2.509,1.109,2.509,2.589s-1.079,2.588-2.509,2.588c-1.439,0-2.519-1.109-2.519-2.588ZM432.177,41.092c0-.93-.59-1.629-1.399-1.629-.819,0-1.409.7-1.409,1.629,0,.939.59,1.629,1.409,1.629.81,0,1.399-.689,1.399-1.629Z"/>
    <path class="uuid-20271670-b09a-4c36-bff9-dcc89b8277b5" d="M434.459,38.583h1.13v1.08c.279-.76.76-1.169,1.379-1.169.19.01.32.03.49.1v.989c-.18-.07-.41-.12-.62-.12-.55,0-.999.31-1.249.83v3.298h-1.13v-5.007Z"/>
    <path class="uuid-20271670-b09a-4c36-bff9-dcc89b8277b5" d="M438.388,36.404l1.13-.19v4.498l2.079-2.129h1.299l-2.309,2.319,2.429,2.688h-1.439l-2.059-2.309v2.309h-1.13v-7.186Z"/>
  </g>
  <g>
    <path class="uuid-20271670-b09a-4c36-bff9-dcc89b8277b5" d="M366.979,49.414l-1.239.53v-.97l1.639-.709h.689v6.996h-1.089v-5.847Z"/>
    <path class="uuid-20271670-b09a-4c36-bff9-dcc89b8277b5" d="M373.147,49.224h-4.018v-.959h5.197v.83l-3.158,6.167h-1.289l3.268-6.037Z"/>
    <path class="uuid-20271670-b09a-4c36-bff9-dcc89b8277b5" d="M375.25,54.471l2.868-2.999c.51-.54.68-.889.68-1.339,0-.58-.54-1.02-1.27-1.02-.649,0-1.149.229-1.818.85l-.62-.75c.77-.709,1.579-1.059,2.459-1.059,1.369,0,2.309.779,2.309,1.919,0,.68-.24,1.169-.989,1.959l-2.229,2.298,3.348-.01v.939h-4.737v-.79Z"/>
    <path class="uuid-20271670-b09a-4c36-bff9-dcc89b8277b5" d="M380.989,54.631c0-.399.31-.729.699-.729s.7.33.7.729-.311.72-.7.72-.699-.32-.699-.72Z"/>
    <path class="uuid-20271670-b09a-4c36-bff9-dcc89b8277b5" d="M383.449,54.471l2.868-2.999c.51-.54.68-.889.68-1.339,0-.58-.54-1.02-1.27-1.02-.649,0-1.149.229-1.818.85l-.62-.75c.77-.709,1.579-1.059,2.459-1.059,1.369,0,2.309.779,2.309,1.919,0,.68-.24,1.169-.989,1.959l-2.229,2.298,3.348-.01v.939h-4.737v-.79Z"/>
    <path class="uuid-20271670-b09a-4c36-bff9-dcc89b8277b5" d="M388.989,54.422l.66-.75c.6.54,1.139.76,1.839.76.89,0,1.489-.55,1.489-1.369,0-.78-.63-1.319-1.52-1.319-.46,0-.89.12-1.379.37l-.77-.229.159-3.618h4.248v.939h-3.288l-.09,2.009c.5-.24.949-.32,1.429-.32,1.39,0,2.319.85,2.319,2.109,0,1.419-1.06,2.369-2.639,2.369-.939,0-1.779-.32-2.459-.949Z"/>
    <path class="uuid-20271670-b09a-4c36-bff9-dcc89b8277b5" d="M394.989,54.631c0-.399.31-.729.699-.729s.7.33.7.729-.311.72-.7.72-.699-.32-.699-.72Z"/>
    <path class="uuid-20271670-b09a-4c36-bff9-dcc89b8277b5" d="M397.449,54.471l2.868-2.999c.51-.54.68-.889.68-1.339,0-.58-.54-1.02-1.27-1.02-.649,0-1.149.229-1.818.85l-.62-.75c.77-.709,1.579-1.059,2.459-1.059,1.369,0,2.309.779,2.309,1.919,0,.68-.24,1.169-.989,1.959l-2.229,2.298,3.348-.01v.939h-4.737v-.79Z"/>
    <path class="uuid-20271670-b09a-4c36-bff9-dcc89b8277b5" d="M402.989,54.422l.66-.75c.6.54,1.139.76,1.839.76.89,0,1.489-.55,1.489-1.369,0-.78-.63-1.319-1.52-1.319-.46,0-.89.12-1.379.37l-.77-.229.159-3.618h4.248v.939h-3.288l-.09,2.009c.5-.24.949-.32,1.429-.32,1.39,0,2.319.85,2.319,2.109,0,1.419-1.06,2.369-2.639,2.369-.939,0-1.779-.32-2.459-.949Z"/>
    <path class="uuid-20271670-b09a-4c36-bff9-dcc89b8277b5" d="M409.05,51.763c0-2.149,1.169-3.608,2.868-3.608s2.858,1.459,2.858,3.608-1.159,3.598-2.858,3.598-2.868-1.459-2.868-3.598ZM413.686,51.763c0-1.609-.689-2.639-1.769-2.639s-1.779,1.029-1.779,2.639c0,1.599.7,2.628,1.779,2.628s1.769-1.029,1.769-2.628Z"/>
    <path class="uuid-20271670-b09a-4c36-bff9-dcc89b8277b5" d="M415.639,54.631c0-.399.31-.729.699-.729s.7.33.7.729-.311.72-.7.72-.699-.32-.699-.72Z"/>
    <path class="uuid-20271670-b09a-4c36-bff9-dcc89b8277b5" d="M417.889,51.763c0-2.149,1.169-3.608,2.868-3.608s2.858,1.459,2.858,3.608-1.159,3.598-2.858,3.598-2.868-1.459-2.868-3.598ZM422.526,51.763c0-1.609-.689-2.639-1.769-2.639s-1.779,1.029-1.779,2.639c0,1.599.7,2.628,1.779,2.628s1.769-1.029,1.769-2.628Z"/>
    <path class="uuid-20271670-b09a-4c36-bff9-dcc89b8277b5" d="M427.328,48.265h1.1l-4.008,9.085h-1.09l3.998-9.085Z"/>
    <path class="uuid-20271670-b09a-4c36-bff9-dcc89b8277b5" d="M429.159,54.471l2.868-2.999c.51-.54.68-.889.68-1.339,0-.58-.539-1.02-1.27-1.02-.649,0-1.149.229-1.818.85l-.62-.75c.77-.709,1.579-1.059,2.459-1.059,1.369,0,2.309.779,2.309,1.919,0,.68-.24,1.169-.989,1.959l-2.229,2.298,3.348-.01v.939h-4.737v-.79Z"/>
    <path class="uuid-20271670-b09a-4c36-bff9-dcc89b8277b5" d="M438.427,53.532h-3.848v-.899l3.688-4.368h1.279v4.317h.92v.95h-.92v1.729h-1.119v-1.729ZM438.427,52.582v-3.038l-2.549,3.038h2.549Z"/>
  </g>
  <path id="uuid-7ff97f7a-7a26-4b4d-acd3-559a0baccaf1" data-name="path168" class="uuid-20271670-b09a-4c36-bff9-dcc89b8277b5" d="M507.152,76.644c.084,0,.166-.025.24-.073l12.282-8.249c.195-.131.246-.397.114-.592-.133-.195-.398-.246-.593-.115l-12.283,8.249c-.195.132-.245.397-.113.592.083.121.216.188.352.188"/>
  <path id="uuid-bdd2635a-8b33-471c-9b21-c7166dc15bf7" data-name="path172" class="uuid-20271670-b09a-4c36-bff9-dcc89b8277b5" d="M508.43,82.325c.083,0,.166-.025.239-.073l9.727-6.573c.195-.131.247-.398.115-.592-.131-.196-.398-.245-.592-.114l-9.728,6.57c-.195.133-.247.399-.114.594.081.122.216.188.353.188"/>
  <path id="uuid-26a53d1a-3530-410e-880d-16afaeb34205" data-name="path176" class="uuid-20271670-b09a-4c36-bff9-dcc89b8277b5" d="M491.422,62.536c0-.55.382-.998.85-.998h42.044c.469,0,.85.448.85.998v24.376c0,.55-.381.998-.85.998h-42.044c-.469,0-.85-.448-.85-.998v-24.376ZM492.272,89.19h42.044c1.175,0,2.13-1.021,2.13-2.278v-24.376c0-1.255-.955-2.278-2.13-2.278h-42.044c-1.174,0-2.13,1.023-2.13,2.278v24.376c0,1.256.956,2.278,2.13,2.278"/>
  <path id="uuid-886ac3a7-be74-4285-81a5-c3b2d739304b" data-name="path180" class="uuid-20271670-b09a-4c36-bff9-dcc89b8277b5" d="M538.353,89.083c0,.963-.783,1.747-1.747,1.747h-46.625c-.963,0-1.747-.783-1.747-1.747v-29.05c0-.963.784-1.748,1.747-1.748h46.625c.964,0,1.747.785,1.747,1.748v29.05ZM506.839,92.764h12.911v2.567h-12.911v-2.567ZM536.606,56.579h-46.625c-1.904,0-3.453,1.549-3.453,3.454v28.965c0,1.904,1.548,3.454,3.453,3.454h15.152v2.878h-4.657c-.472,0-.853.382-.853.854s.381.853.853.853h25.637c.472,0,.853-.382.853-.853s-.382-.854-.853-.854h-4.657v-2.878h15.152c1.903,0,3.452-1.55,3.452-3.454v-28.965c0-1.905-1.548-3.454-3.454-3.454"/>
  <g>
    <path class="uuid-20271670-b09a-4c36-bff9-dcc89b8277b5" d="M485.949,102.433h1.079l.88,3.528,1.039-3.528h.95l1.029,3.528.879-3.528h1.05l-1.35,5.007h-1.079l-1.02-3.528-1.009,3.528h-1.1l-1.35-5.007Z"/>
    <path class="uuid-20271670-b09a-4c36-bff9-dcc89b8277b5" d="M493.449,104.942c0-1.479,1.079-2.589,2.519-2.589,1.429,0,2.509,1.109,2.509,2.589s-1.08,2.588-2.509,2.588c-1.439,0-2.519-1.109-2.519-2.588ZM497.367,104.942c0-.93-.59-1.629-1.399-1.629-.819,0-1.409.7-1.409,1.629,0,.939.59,1.629,1.409,1.629.81,0,1.399-.689,1.399-1.629Z"/>
    <path class="uuid-20271670-b09a-4c36-bff9-dcc89b8277b5" d="M499.649,102.433h1.129v1.08c.28-.76.76-1.169,1.379-1.169.19.01.32.03.49.1v.989c-.18-.07-.41-.12-.62-.12-.549,0-.999.31-1.249.83v3.298h-1.129v-5.007Z"/>
    <path class="uuid-20271670-b09a-4c36-bff9-dcc89b8277b5" d="M503.579,100.254l1.129-.19v4.498l2.079-2.129h1.299l-2.309,2.319,2.429,2.688h-1.439l-2.059-2.309v2.309h-1.129v-7.186Z"/>
    <path class="uuid-20271670-b09a-4c36-bff9-dcc89b8277b5" d="M508.489,106.861l.529-.75c.66.41,1.1.569,1.609.569.6,0,1.009-.28,1.009-.679,0-.31-.209-.47-.699-.57l-.88-.15c-.979-.18-1.449-.63-1.449-1.379,0-.939.77-1.549,1.939-1.549.699,0,1.329.2,1.969.6l-.529.75c-.51-.33-1-.48-1.51-.48-.52,0-.859.22-.859.58,0,.32.18.46.7.55l.889.17c1,.18,1.479.64,1.479,1.389,0,.919-.88,1.629-2.049,1.629-.859,0-1.619-.24-2.148-.68Z"/>
    <path class="uuid-20271670-b09a-4c36-bff9-dcc89b8277b5" d="M514.248,106.141v-2.809h-.999v-.899h.999v-1.379l1.13-.24v1.619h1.389v.899h-1.389v2.559c0,.49.189.68.699.68.22,0,.38-.03.68-.12v.949c-.29.09-.67.14-.97.14-1.009,0-1.539-.48-1.539-1.399Z"/>
    <path class="uuid-20271670-b09a-4c36-bff9-dcc89b8277b5" d="M517.509,106.001c0-.9.739-1.469,1.919-1.469.47,0,.909.1,1.35.32v-.56c0-.66-.38-1-1.149-1-.42,0-.88.12-1.459.39l-.4-.82c.75-.34,1.409-.51,2.079-.51,1.31,0,2.049.66,2.049,1.819v3.268h-1.119v-.52c-.43.419-.91.609-1.489.609-1.05,0-1.779-.629-1.779-1.529ZM519.597,106.731c.45,0,.84-.13,1.18-.42v-.81c-.36-.17-.72-.24-1.149-.24-.649,0-1.06.27-1.06.72,0,.459.399.75,1.029.75Z"/>
    <path class="uuid-20271670-b09a-4c36-bff9-dcc89b8277b5" d="M523.738,106.141v-2.809h-1v-.899h1v-1.379l1.129-.24v1.619h1.39v.899h-1.39v2.559c0,.49.19.68.7.68.22,0,.379-.03.68-.12v.949c-.29.09-.67.14-.97.14-1.01,0-1.539-.48-1.539-1.399Z"/>
    <path class="uuid-20271670-b09a-4c36-bff9-dcc89b8277b5" d="M527.118,100.724c0-.38.311-.7.7-.7.38,0,.699.32.699.7s-.319.689-.699.689c-.39,0-.7-.31-.7-.689ZM527.248,102.433h1.13v5.007h-1.13v-5.007Z"/>
    <path class="uuid-20271670-b09a-4c36-bff9-dcc89b8277b5" d="M529.549,104.942c0-1.479,1.079-2.589,2.519-2.589,1.429,0,2.509,1.109,2.509,2.589s-1.08,2.588-2.509,2.588c-1.439,0-2.519-1.109-2.519-2.588ZM533.467,104.942c0-.93-.59-1.629-1.399-1.629-.819,0-1.409.7-1.409,1.629,0,.939.59,1.629,1.409,1.629.81,0,1.399-.689,1.399-1.629Z"/>
    <path class="uuid-20271670-b09a-4c36-bff9-dcc89b8277b5" d="M535.748,102.433h1.13v.82c.38-.59.929-.9,1.579-.9,1.029,0,1.749.73,1.749,1.789v3.298h-1.14v-2.979c0-.729-.43-1.199-1.1-1.199-.46,0-.829.21-1.089.61v3.568h-1.13v-5.007Z"/>
  </g>
  <g>
    <line class="uuid-721ea908-0ef9-41dd-b108-84c1512f2b5a" x1="466.874" y1="191.099" x2="453.745" y2="191.099"/>
    <polygon class="uuid-20271670-b09a-4c36-bff9-dcc89b8277b5" points="454.839 187.359 448.363 191.098 454.839 194.838 454.839 187.359"/>
  </g>
  <g>
    <line class="uuid-721ea908-0ef9-41dd-b108-84c1512f2b5a" x1="466.874" y1="144.223" x2="453.745" y2="144.223"/>
    <polygon class="uuid-20271670-b09a-4c36-bff9-dcc89b8277b5" points="454.839 140.484 448.363 144.223 454.839 147.963 454.839 140.484"/>
  </g>
  <g>
    <line class="uuid-721ea908-0ef9-41dd-b108-84c1512f2b5a" x1="475.819" y1="74.01" x2="436.43" y2="74.01"/>
    <polygon class="uuid-20271670-b09a-4c36-bff9-dcc89b8277b5" points="474.725 70.27 481.201 74.009 474.725 77.749 474.725 70.27"/>
    <polygon class="uuid-20271670-b09a-4c36-bff9-dcc89b8277b5" points="437.524 70.27 431.048 74.009 437.524 77.749 437.524 70.27"/>
  </g>
  <g>
    <line class="uuid-721ea908-0ef9-41dd-b108-84c1512f2b5a" x1="466.874" y1="191.099" x2="480.004" y2="191.099"/>
    <polygon class="uuid-20271670-b09a-4c36-bff9-dcc89b8277b5" points="478.91 194.838 485.386 191.099 478.91 187.359 478.91 194.838"/>
  </g>
  <g>
    <line class="uuid-721ea908-0ef9-41dd-b108-84c1512f2b5a" x1="466.874" y1="144.223" x2="480.004" y2="144.223"/>
    <polygon class="uuid-20271670-b09a-4c36-bff9-dcc89b8277b5" points="478.91 147.963 485.386 144.224 478.91 140.484 478.91 147.963"/>
  </g>
</svg>